SplineFontDB: 3.2
FontName: JuliaMono-BoldTrimmed
FullName: JuliaMono Bold Trimmed
FamilyName: JuliaMono
Weight: Bold
Copyright: Copyright 2021 The JuliaMono Project Authors (https://github.com/cormullion/juliamono)
Version: 0.045; ttfautohint (v1.8.4)
ItalicAngle: 0
UnderlinePosition: -250
UnderlineWidth: 100
Ascent: 1600
Descent: 400
InvalidEm: 0
sfntRevision: 0x00000b85
LayerCount: 2
Layer: 0 1 "Back" 1
Layer: 1 1 "Fore" 0
XUID: [1021 821 -1512940191 25877]
StyleMap: 0x0020
FSType: 0
OS2Version: 4
OS2_WeightWidthSlopeOnly: 0
OS2_UseTypoMetrics: 1
CreationTime: 1650882240
ModificationTime: 1658090985
PfmFamily: 17
TTFWeight: 700
TTFWidth: 5
LineGap: 0
VLineGap: 0
Panose: 2 11 6 9 6 3 0 2 0 4
OS2TypoAscent: 1900
OS2TypoAOffset: 0
OS2TypoDescent: -480
OS2TypoDOffset: 0
OS2TypoLinegap: 0
OS2WinAscent: 2400
OS2WinAOffset: 0
OS2WinDescent: 600
OS2WinDOffset: 0
HheadAscent: 1900
HheadAOffset: 0
HheadDescent: -480
HheadDOffset: 0
OS2SubXSize: 1300
OS2SubYSize: 1200
OS2SubXOff: 0
OS2SubYOff: 150
OS2SupXSize: 1300
OS2SupYSize: 1200
OS2SupXOff: 0
OS2SupYOff: 700
OS2StrikeYSize: 100
OS2StrikeYPos: 1100
OS2CapHeight: 1450
OS2XHeight: 1100
OS2Vendor: 'UKWN'
OS2CodePages: 602801bf.00000000
OS2UnicodeRanges: e501ffff.fac5ffff.0f04e877.05c0a06c
Lookup: 1 0 0 "'aalt' Access All Alternates lookup 0" { "'aalt' Access All Alternates lookup 0 subtable"  } ['aalt' ('DFLT' <'dflt' > 'cyrl' <'BGR ' 'SRB ' 'dflt' > 'hebr' <'IWR ' 'dflt' > 'latn' <'AZE ' 'CAT ' 'CRT ' 'KAZ ' 'MOL ' 'NLD ' 'ROM ' 'TAT ' 'TRK ' 'dflt' > ) ]
Lookup: 3 0 0 "'aalt' Access All Alternates lookup 1" { "'aalt' Access All Alternates lookup 1 subtable"  } ['aalt' ('DFLT' <'dflt' > 'cyrl' <'BGR ' 'SRB ' 'dflt' > 'hebr' <'IWR ' 'dflt' > 'latn' <'AZE ' 'CAT ' 'CRT ' 'KAZ ' 'MOL ' 'NLD ' 'ROM ' 'TAT ' 'TRK ' 'dflt' > ) ]

StartChar: A
Encoding: 65 65 0
Width: 1200
GlyphClass: 2
Flags: W
AnchorPoint: "Anchor-35" 420 1452 basechar 0
AnchorPoint: "Anchor-34" 602 1450 basechar 0
AnchorPoint: "Anchor-33" 994 0 basechar 0
AnchorPoint: "Anchor-32" 598 0 basechar 0
LayerCount: 2
Fore
SplineSet
426 1450 m 1,0,-1
 778 1450 l 1,1,-1
 1120 0 l 1,2,-1
 864 0 l 1,3,-1
 780 342 l 1,4,-1
 398 342 l 1,5,-1
 318 0 l 1,6,-1
 82 0 l 1,7,-1
 426 1450 l 1,0,-1
746 550 m 1,8,-1
 612 1204 l 1,9,-1
 588 1204 l 1,10,-1
 456 550 l 1,11,-1
 746 550 l 1,8,-1
EndSplineSet
Substitution2: "Single Substitution lookup 63 subtable" ordfeminine
Substitution2: "'fwid' Full Widths lookup 32 subtable" uniFF21
Substitution2: "'c2sc' Capitals to Small Capitals lookup 26 subtable" a.sc
AlternateSubs2: "'aalt' Access All Alternates lookup 1 subtable" ordfeminine a.sc uniFF21
EndChar

StartChar: B
Encoding: 66 66 1
Width: 1200
GlyphClass: 2
Flags: W
AnchorPoint: "Anchor-34" 594 1448 basechar 0
AnchorPoint: "Anchor-32" 598 0 basechar 0
LayerCount: 2
Fore
SplineSet
118 1450 m 1,0,-1
 518 1450 l 2,1,2
 727 1450 727 1450 848.5 1355.5 c 128,-1,3
 970 1261 970 1261 970 1072 c 0,4,5
 970 939 970 939 924.5 870 c 128,-1,6
 879 801 879 801 786 764 c 1,7,8
 918 743 918 743 1004 656.5 c 128,-1,9
 1090 570 1090 570 1090 396 c 0,10,11
 1090 185 1090 185 945 92.5 c 128,-1,12
 800 0 800 0 574 0 c 2,13,-1
 118 0 l 1,14,-1
 118 1450 l 1,0,-1
488 838 m 2,15,16
 598 838 598 838 658 884.5 c 128,-1,17
 718 931 718 931 718 1046 c 0,18,19
 718 1148 718 1148 662.5 1196 c 128,-1,20
 607 1244 607 1244 512 1244 c 2,21,-1
 370 1244 l 1,22,-1
 370 838 l 1,23,-1
 488 838 l 2,15,16
544 200 m 2,24,25
 620 200 620 200 677.5 215 c 128,-1,26
 735 230 735 230 774.5 277.5 c 128,-1,27
 814 325 814 325 814 416 c 0,28,29
 814 542 814 542 744 592 c 128,-1,30
 674 642 674 642 566 642 c 2,31,-1
 372 642 l 1,32,-1
 372 200 l 1,33,-1
 544 200 l 2,24,25
EndSplineSet
Substitution2: "'fwid' Full Widths lookup 32 subtable" uniFF22
Substitution2: "'c2sc' Capitals to Small Capitals lookup 26 subtable" b.sc
AlternateSubs2: "'aalt' Access All Alternates lookup 1 subtable" b.sc uniFF22
EndChar

StartChar: C
Encoding: 67 67 2
Width: 1200
GlyphClass: 2
Flags: W
AnchorPoint: "Anchor-34" 600 1450 basechar 0
AnchorPoint: "Anchor-32" 618 -10 basechar 0
LayerCount: 2
Fore
SplineSet
332 58.5 m 128,-1,1
 209 153 209 153 148.5 322 c 128,-1,2
 88 491 88 491 88 714 c 0,3,4
 88 942 88 942 150 1111.5 c 128,-1,5
 212 1281 212 1281 340.5 1375.5 c 128,-1,6
 469 1470 469 1470 664 1470 c 0,7,8
 803 1470 803 1470 917.5 1419 c 128,-1,9
 1032 1368 1032 1368 1112 1262 c 1,10,-1
 970 1112 l 1,11,12
 904 1182 904 1182 837 1210 c 128,-1,13
 770 1238 770 1238 686 1238 c 0,14,15
 516 1238 516 1238 437 1094 c 128,-1,16
 358 950 358 950 358 714 c 0,17,18
 358 473 358 473 433.5 333.5 c 128,-1,19
 509 194 509 194 682 194 c 0,20,21
 766 194 766 194 842 224 c 128,-1,22
 918 254 918 254 970 322 c 1,23,-1
 1102 176 l 1,24,25
 1024 69 1024 69 910.5 16.5 c 128,-1,26
 797 -36 797 -36 636 -36 c 0,27,0
 455 -36 455 -36 332 58.5 c 128,-1,1
EndSplineSet
Substitution2: "'fwid' Full Widths lookup 32 subtable" uniFF23
Substitution2: "'c2sc' Capitals to Small Capitals lookup 26 subtable" c.sc
AlternateSubs2: "'aalt' Access All Alternates lookup 1 subtable" c.sc uniFF23
EndChar

StartChar: D
Encoding: 68 68 3
Width: 1200
GlyphClass: 2
Flags: W
AnchorPoint: "Anchor-36" 600 700 basechar 0
AnchorPoint: "Anchor-34" 600 1450 basechar 0
AnchorPoint: "Anchor-32" 600 0 basechar 0
LayerCount: 2
Fore
SplineSet
132 1450 m 1,0,-1
 446 1450 l 2,1,2
 671 1450 671 1450 814 1381 c 128,-1,3
 957 1312 957 1312 1028.5 1155 c 128,-1,4
 1100 998 1100 998 1100 734 c 256,5,6
 1100 470 1100 470 1033.5 310 c 128,-1,7
 967 150 967 150 820.5 75 c 128,-1,8
 674 0 674 0 430 0 c 2,9,-1
 132 0 l 1,10,-1
 132 1450 l 1,0,-1
458 218 m 2,11,12
 589 218 589 218 668.5 276 c 128,-1,13
 748 334 748 334 783 447.5 c 128,-1,14
 818 561 818 561 818 734 c 0,15,16
 818 979 818 979 739 1105.5 c 128,-1,17
 660 1232 660 1232 476 1232 c 2,18,-1
 390 1232 l 1,19,-1
 390 218 l 1,20,-1
 458 218 l 2,11,12
EndSplineSet
Substitution2: "'fwid' Full Widths lookup 32 subtable" uniFF24
Substitution2: "'c2sc' Capitals to Small Capitals lookup 26 subtable" d.sc
AlternateSubs2: "'aalt' Access All Alternates lookup 1 subtable" d.sc uniFF24
EndChar

StartChar: E
Encoding: 69 69 4
Width: 1200
GlyphClass: 2
Flags: W
AnchorPoint: "Anchor-35" 142 1450 basechar 0
AnchorPoint: "Anchor-34" 600 1450 basechar 0
AnchorPoint: "Anchor-33" 932 0 basechar 0
AnchorPoint: "Anchor-32" 600 0 basechar 0
LayerCount: 2
Fore
SplineSet
136 1450 m 1,0,-1
 1046 1450 l 1,1,-1
 1046 1230 l 1,2,-1
 396 1230 l 1,3,-1
 396 860 l 1,4,-1
 1014 860 l 1,5,-1
 1014 640 l 1,6,-1
 396 640 l 1,7,-1
 396 218 l 1,8,-1
 1074 218 l 1,9,-1
 1074 0 l 1,10,-1
 136 0 l 1,11,-1
 136 1450 l 1,0,-1
EndSplineSet
Substitution2: "'fwid' Full Widths lookup 32 subtable" uniFF25
Substitution2: "'c2sc' Capitals to Small Capitals lookup 26 subtable" e.sc
AlternateSubs2: "'aalt' Access All Alternates lookup 1 subtable" e.sc uniFF25
EndChar

StartChar: F
Encoding: 70 70 5
Width: 1200
GlyphClass: 2
Flags: W
AnchorPoint: "Anchor-34" 596 1450 basechar 0
AnchorPoint: "Anchor-32" 596 0 basechar 0
LayerCount: 2
Fore
SplineSet
138 1450 m 1,0,-1
 1060 1450 l 1,1,-1
 1060 1230 l 1,2,-1
 396 1230 l 1,3,-1
 396 814 l 1,4,-1
 1018 814 l 1,5,-1
 1018 598 l 1,6,-1
 396 598 l 1,7,-1
 396 0 l 1,8,-1
 138 0 l 1,9,-1
 138 1450 l 1,0,-1
EndSplineSet
Substitution2: "'fwid' Full Widths lookup 32 subtable" uniFF26
Substitution2: "'c2sc' Capitals to Small Capitals lookup 26 subtable" f.sc
AlternateSubs2: "'aalt' Access All Alternates lookup 1 subtable" f.sc uniFF26
EndChar

StartChar: G
Encoding: 71 71 6
Width: 1200
GlyphClass: 2
Flags: W
AnchorPoint: "Anchor-34" 590 1474 basechar 0
AnchorPoint: "Anchor-32" 600 0 basechar 0
LayerCount: 2
Fore
SplineSet
329.5 72.5 m 128,-1,1
 216 167 216 167 161 335.5 c 128,-1,2
 106 504 106 504 106 728 c 0,3,4
 106 955 106 955 163 1122 c 128,-1,5
 220 1289 220 1289 338.5 1381.5 c 128,-1,6
 457 1474 457 1474 637 1474 c 0,7,8
 789 1474 789 1474 905.5 1408 c 128,-1,9
 1022 1342 1022 1342 1082 1222 c 1,10,-1
 910 1092 l 1,11,12
 857 1181 857 1181 793 1213.5 c 128,-1,13
 729 1246 729 1246 658 1246 c 0,14,15
 486 1246 486 1246 423 1107.5 c 128,-1,16
 360 969 360 969 360 733 c 0,17,18
 360 489 360 489 421.5 338.5 c 128,-1,19
 483 188 483 188 642 188 c 0,20,21
 773 188 773 188 837.5 293.5 c 128,-1,22
 902 399 902 399 902 576 c 1,23,-1
 612 576 l 1,24,-1
 612 774 l 1,25,-1
 1114 774 l 1,26,-1
 1114 0 l 1,27,-1
 912 0 l 1,28,-1
 912 120 l 1,29,-1
 902 120 l 1,30,31
 870 54 870 54 796.5 16 c 128,-1,32
 723 -22 723 -22 614 -22 c 0,33,0
 443 -22 443 -22 329.5 72.5 c 128,-1,1
EndSplineSet
Substitution2: "'fwid' Full Widths lookup 32 subtable" uniFF27
Substitution2: "'c2sc' Capitals to Small Capitals lookup 26 subtable" g.sc
AlternateSubs2: "'aalt' Access All Alternates lookup 1 subtable" g.sc uniFF27
EndChar

StartChar: H
Encoding: 72 72 7
Width: 1200
GlyphClass: 2
Flags: W
AnchorPoint: "Anchor-38" 1054 0 basechar 0
AnchorPoint: "Anchor-36" 600 726 basechar 0
AnchorPoint: "Anchor-35" 90 1450 basechar 0
AnchorPoint: "Anchor-34" 600 1450 basechar 0
AnchorPoint: "Anchor-32" 438 0 basechar 0
LayerCount: 2
Fore
SplineSet
148 1450 m 1,0,-1
 404 1450 l 1,1,-1
 404 870 l 1,2,-1
 798 870 l 1,3,-1
 798 1450 l 1,4,-1
 1054 1450 l 1,5,-1
 1054 0 l 1,6,-1
 798 0 l 1,7,-1
 798 644 l 1,8,-1
 404 644 l 1,9,-1
 404 0 l 1,10,-1
 148 0 l 1,11,-1
 148 1450 l 1,0,-1
EndSplineSet
Substitution2: "'fwid' Full Widths lookup 32 subtable" uniFF28
Substitution2: "'c2sc' Capitals to Small Capitals lookup 26 subtable" h.sc
AlternateSubs2: "'aalt' Access All Alternates lookup 1 subtable" h.sc uniFF28
EndChar

StartChar: I
Encoding: 73 73 8
Width: 1200
GlyphClass: 2
Flags: W
AnchorPoint: "Anchor-35" 224 1450 basechar 0
AnchorPoint: "Anchor-34" 600 1452 basechar 0
AnchorPoint: "Anchor-33" 600 0 basechar 0
AnchorPoint: "Anchor-32" 600 0 basechar 0
LayerCount: 2
Fore
SplineSet
234 206 m 1,0,-1
 474 206 l 1,1,-1
 474 1244 l 1,2,-1
 254 1244 l 1,3,-1
 254 1450 l 1,4,-1
 944 1450 l 1,5,-1
 944 1244 l 1,6,-1
 730 1244 l 1,7,-1
 730 206 l 1,8,-1
 964 206 l 1,9,-1
 964 0 l 1,10,-1
 234 0 l 1,11,-1
 234 206 l 1,0,-1
EndSplineSet
Substitution2: "'fwid' Full Widths lookup 32 subtable" uniFF29
Substitution2: "'c2sc' Capitals to Small Capitals lookup 26 subtable" i.sc
AlternateSubs2: "'aalt' Access All Alternates lookup 1 subtable" i.sc uniFF29
EndChar

StartChar: J
Encoding: 74 74 9
Width: 1200
GlyphClass: 2
Flags: W
AnchorPoint: "Anchor-34" 624 1450 basechar 0
AnchorPoint: "Anchor-32" 600 -19 basechar 0
LayerCount: 2
Fore
SplineSet
343 36 m 128,-1,1
 235 92 235 92 174.5 196.5 c 128,-1,2
 114 301 114 301 114 442 c 1,3,-1
 358 442 l 1,4,5
 358 370 358 370 388.5 313.5 c 128,-1,6
 419 257 419 257 472 225.5 c 128,-1,7
 525 194 525 194 590 194 c 0,8,9
 703 194 703 194 757.5 269.5 c 128,-1,10
 812 345 812 345 812 468 c 2,11,-1
 812 1238 l 1,12,-1
 244 1238 l 1,13,-1
 244 1450 l 1,14,-1
 1060 1450 l 1,15,-1
 1060 466 l 2,16,17
 1060 310 1060 310 1005 201 c 128,-1,18
 950 92 950 92 844.5 36 c 128,-1,19
 739 -20 739 -20 590 -20 c 0,20,0
 451 -20 451 -20 343 36 c 128,-1,1
EndSplineSet
Substitution2: "'fwid' Full Widths lookup 32 subtable" uniFF2A
Substitution2: "'c2sc' Capitals to Small Capitals lookup 26 subtable" j.sc
AlternateSubs2: "'aalt' Access All Alternates lookup 1 subtable" j.sc uniFF2A
EndChar

StartChar: K
Encoding: 75 75 10
Width: 1200
GlyphClass: 2
Flags: W
AnchorPoint: "Anchor-34" 600 1450 basechar 0
AnchorPoint: "Anchor-32" 600 0 basechar 0
LayerCount: 2
Fore
SplineSet
434 735 m 1,0,-1
 434 0 l 1,1,-1
 182 0 l 1,2,-1
 182 1452 l 1,3,-1
 434 1452 l 1,4,-1
 434 843 l 1,5,-1
 842 1452 l 1,6,-1
 1122 1452 l 1,7,-1
 678 798 l 1,8,-1
 1172 0 l 1,9,-1
 872 0 l 1,10,-1
 434 735 l 1,0,-1
EndSplineSet
Substitution2: "'fwid' Full Widths lookup 32 subtable" uniFF2B
Substitution2: "'c2sc' Capitals to Small Capitals lookup 26 subtable" k.sc
AlternateSubs2: "'aalt' Access All Alternates lookup 1 subtable" k.sc uniFF2B
EndChar

StartChar: L
Encoding: 76 76 11
Width: 1200
GlyphClass: 2
Flags: W
AnchorPoint: "Anchor-37" 1078 1452 basechar 0
AnchorPoint: "Anchor-36" 600 726 basechar 0
AnchorPoint: "Anchor-34" 600 1452 basechar 0
AnchorPoint: "Anchor-32" 610 -20 basechar 0
LayerCount: 2
Fore
SplineSet
154 1452 m 1,0,-1
 414 1452 l 1,1,-1
 414 222 l 1,2,-1
 1086 222 l 1,3,-1
 1086 0 l 1,4,-1
 154 0 l 1,5,-1
 154 1452 l 1,0,-1
EndSplineSet
Substitution2: "'fwid' Full Widths lookup 32 subtable" uniFF2C
Substitution2: "'c2sc' Capitals to Small Capitals lookup 26 subtable" l.sc
AlternateSubs2: "'aalt' Access All Alternates lookup 1 subtable" l.sc uniFF2C
EndChar

StartChar: M
Encoding: 77 77 12
Width: 1200
GlyphClass: 2
Flags: W
AnchorPoint: "Anchor-38" 1082 0 basechar 0
AnchorPoint: "Anchor-34" 600 1450 basechar 0
AnchorPoint: "Anchor-32" 600 0 basechar 0
LayerCount: 2
Fore
SplineSet
118 1450 m 1,0,-1
 442 1450 l 1,1,-1
 599 860 l 1,2,-1
 758 1450 l 1,3,-1
 1082 1450 l 1,4,-1
 1082 0 l 1,5,-1
 838 0 l 1,6,-1
 838 1003 l 1,7,-1
 829 984 l 1,8,-1
 827 973 l 1,9,-1
 660 389 l 1,10,-1
 540 389 l 1,11,-1
 375 973 l 1,12,-1
 372 984 l 1,13,-1
 360 1003 l 1,14,-1
 360 0 l 1,15,-1
 118 0 l 1,16,-1
 118 1450 l 1,0,-1
EndSplineSet
Substitution2: "'fwid' Full Widths lookup 32 subtable" uniFF2D
Substitution2: "'c2sc' Capitals to Small Capitals lookup 26 subtable" m.sc
AlternateSubs2: "'aalt' Access All Alternates lookup 1 subtable" m.sc uniFF2D
EndChar

StartChar: N
Encoding: 78 78 13
Width: 1200
GlyphClass: 2
Flags: W
AnchorPoint: "Anchor-34" 600 1450 basechar 0
AnchorPoint: "Anchor-32" 600 0 basechar 0
LayerCount: 2
Fore
SplineSet
140 1450 m 1,0,-1
 464 1450 l 1,1,-1
 748 618 l 1,2,-1
 806 442 l 1,3,-1
 806 1450 l 1,4,-1
 1056 1450 l 1,5,-1
 1056 0 l 1,6,-1
 752 0 l 1,7,-1
 388 990 l 1,8,-1
 388 0 l 1,9,-1
 140 0 l 1,10,-1
 140 1450 l 1,0,-1
EndSplineSet
Substitution2: "'fwid' Full Widths lookup 32 subtable" uniFF2E
Substitution2: "'c2sc' Capitals to Small Capitals lookup 26 subtable" n.sc
AlternateSubs2: "'aalt' Access All Alternates lookup 1 subtable" n.sc uniFF2E
EndChar

StartChar: O
Encoding: 79 79 14
Width: 1200
GlyphClass: 2
Flags: W
AnchorPoint: "Anchor-37" 884 1378 basechar 0
AnchorPoint: "Anchor-36" 600 726 basechar 0
AnchorPoint: "Anchor-35" 90 1450 basechar 0
AnchorPoint: "Anchor-34" 600 1450 basechar 0
AnchorPoint: "Anchor-33" 596 -10 basechar 0
AnchorPoint: "Anchor-32" 600 -16 basechar 0
LayerCount: 2
Fore
SplineSet
294.5 70 m 128,-1,1
 174 170 174 170 117 345 c 128,-1,2
 60 520 60 520 60 750 c 0,3,4
 60 970 60 970 125.5 1132.5 c 128,-1,5
 191 1295 191 1295 313 1382.5 c 128,-1,6
 435 1470 435 1470 600 1470 c 0,7,8
 766 1470 766 1470 888 1384.5 c 128,-1,9
 1010 1299 1010 1299 1075 1138 c 128,-1,10
 1140 977 1140 977 1140 754 c 0,11,12
 1140 522 1140 522 1083.5 346 c 128,-1,13
 1027 170 1027 170 906.5 70 c 128,-1,14
 786 -30 786 -30 600 -30 c 0,15,0
 415 -30 415 -30 294.5 70 c 128,-1,1
388.5 348.5 m 128,-1,17
 455 198 455 198 598 198 c 0,18,19
 743 198 743 198 810.5 347 c 128,-1,20
 878 496 878 496 878 738 c 0,21,22
 878 882 878 882 846.5 997.5 c 128,-1,23
 815 1113 815 1113 753 1180.5 c 128,-1,24
 691 1248 691 1248 602 1248 c 0,25,26
 512 1248 512 1248 449 1183.5 c 128,-1,27
 386 1119 386 1119 354 1003.5 c 128,-1,28
 322 888 322 888 322 734 c 0,29,16
 322 499 322 499 388.5 348.5 c 128,-1,17
EndSplineSet
Substitution2: "Single Substitution lookup 63 subtable" ordmasculine
Substitution2: "'fwid' Full Widths lookup 32 subtable" uniFF2F
Substitution2: "'c2sc' Capitals to Small Capitals lookup 26 subtable" o.sc
AlternateSubs2: "'aalt' Access All Alternates lookup 1 subtable" ordmasculine o.sc uniFF2F
EndChar

StartChar: P
Encoding: 80 80 15
Width: 1200
GlyphClass: 2
Flags: W
AnchorPoint: "Anchor-35" 136 1450 basechar 0
AnchorPoint: "Anchor-34" 600 1450 basechar 0
AnchorPoint: "Anchor-32" 600 0 basechar 0
LayerCount: 2
Fore
SplineSet
128 1450 m 1,0,-1
 600 1450 l 2,1,2
 826 1450 826 1450 961 1355 c 128,-1,3
 1096 1260 1096 1260 1096 1030 c 0,4,5
 1096 875 1096 875 1029 777.5 c 128,-1,6
 962 680 962 680 852 637 c 128,-1,7
 742 594 742 594 608 594 c 2,8,-1
 388 594 l 1,9,-1
 388 0 l 1,10,-1
 128 0 l 1,11,-1
 128 1450 l 1,0,-1
530 806 m 2,12,13
 631 806 631 806 691 819 c 128,-1,14
 751 832 751 832 788.5 881 c 128,-1,15
 826 930 826 930 826 1032 c 0,16,17
 826 1155 826 1155 758.5 1200.5 c 128,-1,18
 691 1246 691 1246 578 1246 c 2,19,-1
 388 1246 l 1,20,-1
 388 806 l 1,21,-1
 530 806 l 2,12,13
EndSplineSet
Substitution2: "'fwid' Full Widths lookup 32 subtable" uniFF30
Substitution2: "'c2sc' Capitals to Small Capitals lookup 26 subtable" p.sc
AlternateSubs2: "'aalt' Access All Alternates lookup 1 subtable" p.sc uniFF30
EndChar

StartChar: Q
Encoding: 81 81 16
Width: 1200
GlyphClass: 2
Flags: W
AnchorPoint: "Anchor-37" 852 1396 basechar 0
AnchorPoint: "Anchor-36" 600 726 basechar 0
AnchorPoint: "Anchor-35" 90 1450 basechar 0
AnchorPoint: "Anchor-34" 602 1456 basechar 0
AnchorPoint: "Anchor-33" 600 -8 basechar 0
AnchorPoint: "Anchor-32" 600 -318 basechar 0
LayerCount: 2
Fore
SplineSet
669.5 -291 m 128,-1,1
 586 -250 586 -250 540 -179 c 128,-1,2
 494 -108 494 -108 494 -20 c 2,3,-1
 494 -15 l 1,4,5
 280 24 280 24 179 221.5 c 128,-1,6
 78 419 78 419 78 736 c 0,7,8
 78 962 78 962 141 1127.5 c 128,-1,9
 204 1293 204 1293 322 1381.5 c 128,-1,10
 440 1470 440 1470 602 1470 c 0,11,12
 769 1470 769 1470 886 1381.5 c 128,-1,13
 1003 1293 1003 1293 1063.5 1128 c 128,-1,14
 1124 963 1124 963 1124 736 c 0,15,16
 1124 409 1124 409 1024 213 c 128,-1,17
 924 17 924 17 695 -17 c 1,18,19
 704 -65 704 -65 745 -87.5 c 128,-1,20
 786 -110 786 -110 868 -110 c 2,21,-1
 1130 -110 l 1,22,-1
 1130 -332 l 1,23,-1
 860 -332 l 2,24,0
 753 -332 753 -332 669.5 -291 c 128,-1,1
395 331 m 128,-1,26
 452 188 452 188 598 188 c 0,27,28
 748 188 748 188 806 330.5 c 128,-1,29
 864 473 864 473 864 736 c 0,30,31
 864 963 864 963 798.5 1107.5 c 128,-1,32
 733 1252 733 1252 598 1252 c 0,33,34
 467 1252 467 1252 402.5 1109.5 c 128,-1,35
 338 967 338 967 338 736 c 0,36,25
 338 474 338 474 395 331 c 128,-1,26
EndSplineSet
Substitution2: "'fwid' Full Widths lookup 32 subtable" uniFF31
Substitution2: "'c2sc' Capitals to Small Capitals lookup 26 subtable" q.sc
AlternateSubs2: "'aalt' Access All Alternates lookup 1 subtable" q.sc uniFF31
EndChar

StartChar: R
Encoding: 82 82 17
Width: 1200
GlyphClass: 2
Flags: W
AnchorPoint: "Anchor-34" 600 1450 basechar 0
AnchorPoint: "Anchor-32" 600 0 basechar 0
LayerCount: 2
Fore
SplineSet
138 1450 m 1,0,-1
 610 1450 l 2,1,2
 744 1450 744 1450 856 1399 c 128,-1,3
 968 1348 968 1348 1034 1251.5 c 128,-1,4
 1100 1155 1100 1155 1100 1022 c 0,5,6
 1100 878 1100 878 1028.5 777.5 c 128,-1,7
 957 677 957 677 831 630 c 1,8,-1
 1146 -4 l 1,9,-1
 876 -4 l 1,10,-1
 587 592 l 1,11,-1
 396 592 l 1,12,-1
 396 0 l 1,13,-1
 138 0 l 1,14,-1
 138 1450 l 1,0,-1
540 812 m 2,15,16
 850 812 850 812 850 1024 c 0,17,18
 850 1127 850 1127 774.5 1181.5 c 128,-1,19
 699 1236 699 1236 582 1236 c 2,20,-1
 396 1236 l 1,21,-1
 396 812 l 1,22,-1
 540 812 l 2,15,16
EndSplineSet
Substitution2: "'fwid' Full Widths lookup 32 subtable" uniFF32
Substitution2: "'c2sc' Capitals to Small Capitals lookup 26 subtable" r.sc
AlternateSubs2: "'aalt' Access All Alternates lookup 1 subtable" r.sc uniFF32
EndChar

StartChar: S
Encoding: 83 83 18
Width: 1200
GlyphClass: 2
Flags: W
AnchorPoint: "Anchor-34" 600 1458 basechar 0
AnchorPoint: "Anchor-32" 600 2 basechar 0
LayerCount: 2
Fore
SplineSet
419.5 253 m 128,-1,1
 505 202 505 202 590 202 c 0,2,3
 708 202 708 202 779 253.5 c 128,-1,4
 850 305 850 305 850 406 c 0,5,6
 850 468 850 468 819 506 c 128,-1,7
 788 544 788 544 739.5 566.5 c 128,-1,8
 691 589 691 589 598 620 c 0,9,10
 582 625 582 625 546 637.5 c 128,-1,11
 510 650 510 650 480 662 c 0,12,13
 371 705 371 705 292 756.5 c 128,-1,14
 213 808 213 808 165.5 884 c 128,-1,15
 118 960 118 960 118 1064 c 0,16,17
 118 1187 118 1187 183 1279 c 128,-1,18
 248 1371 248 1371 363 1420.5 c 128,-1,19
 478 1470 478 1470 624 1470 c 0,20,21
 773 1470 773 1470 880.5 1417.5 c 128,-1,22
 988 1365 988 1365 1090 1256 c 1,23,-1
 928 1110 l 1,24,25
 853 1183 853 1183 779 1220.5 c 128,-1,26
 705 1258 705 1258 612 1258 c 0,27,28
 545 1258 545 1258 488.5 1237.5 c 128,-1,29
 432 1217 432 1217 398 1175 c 128,-1,30
 364 1133 364 1133 364 1072 c 0,31,32
 364 1008 364 1008 405 964.5 c 128,-1,33
 446 921 446 921 507.5 893.5 c 128,-1,34
 569 866 569 866 676 829 c 0,35,36
 813 782 813 782 899 740 c 128,-1,37
 985 698 985 698 1045.5 621 c 128,-1,38
 1106 544 1106 544 1106 424 c 0,39,40
 1106 290 1106 290 1042 190 c 128,-1,41
 978 90 978 90 862 36 c 128,-1,42
 746 -18 746 -18 594 -18 c 0,43,44
 430 -18 430 -18 304 55.5 c 128,-1,45
 178 129 178 129 76 252 c 1,46,-1
 244 400 l 1,47,0
 334 304 334 304 419.5 253 c 128,-1,1
EndSplineSet
Substitution2: "'fwid' Full Widths lookup 32 subtable" uniFF33
Substitution2: "'c2sc' Capitals to Small Capitals lookup 26 subtable" s.sc
AlternateSubs2: "'aalt' Access All Alternates lookup 1 subtable" s.sc uniFF33
EndChar

StartChar: T
Encoding: 84 84 19
Width: 1200
GlyphClass: 2
Flags: W
AnchorPoint: "Anchor-36" 600 700 basechar 0
AnchorPoint: "Anchor-35" 84 1450 basechar 0
AnchorPoint: "Anchor-34" 600 1450 basechar 0
AnchorPoint: "Anchor-32" 600 0 basechar 0
LayerCount: 2
Fore
SplineSet
472 1222 m 1,0,-1
 84 1222 l 1,1,-1
 84 1450 l 1,2,-1
 1116 1450 l 1,3,-1
 1116 1222 l 1,4,-1
 730 1222 l 1,5,-1
 730 0 l 1,6,-1
 472 0 l 1,7,-1
 472 1222 l 1,0,-1
EndSplineSet
Substitution2: "'fwid' Full Widths lookup 32 subtable" uniFF34
Substitution2: "'c2sc' Capitals to Small Capitals lookup 26 subtable" t.sc
AlternateSubs2: "'aalt' Access All Alternates lookup 1 subtable" t.sc uniFF34
EndChar

StartChar: U
Encoding: 85 85 20
Width: 1200
GlyphClass: 2
Flags: W
AnchorPoint: "Anchor-37" 1088 1452 basechar 0
AnchorPoint: "Anchor-34" 600 1454 basechar 0
AnchorPoint: "Anchor-33" 668 20 basechar 0
AnchorPoint: "Anchor-32" 600 0 basechar 0
LayerCount: 2
Fore
SplineSet
312.5 43.5 m 128,-1,1
 206 109 206 109 159 242.5 c 128,-1,2
 112 376 112 376 112 590 c 2,3,-1
 112 1452 l 1,4,-1
 366 1452 l 1,5,-1
 366 600 l 2,6,7
 366 451 366 451 388.5 364.5 c 128,-1,8
 411 278 411 278 463.5 238 c 128,-1,9
 516 198 516 198 608 198 c 0,10,11
 694 198 694 198 742.5 237.5 c 128,-1,12
 791 277 791 277 811.5 363.5 c 128,-1,13
 832 450 832 450 832 600 c 2,14,-1
 832 1452 l 1,15,-1
 1088 1452 l 1,16,-1
 1088 590 l 2,17,18
 1088 371 1088 371 1046 239.5 c 128,-1,19
 1004 108 1004 108 898 43 c 128,-1,20
 792 -22 792 -22 600 -22 c 0,21,0
 419 -22 419 -22 312.5 43.5 c 128,-1,1
EndSplineSet
Substitution2: "'fwid' Full Widths lookup 32 subtable" uniFF35
Substitution2: "'c2sc' Capitals to Small Capitals lookup 26 subtable" u.sc
AlternateSubs2: "'aalt' Access All Alternates lookup 1 subtable" u.sc uniFF35
EndChar

StartChar: V
Encoding: 86 86 21
Width: 1200
GlyphClass: 2
Flags: W
AnchorPoint: "Anchor-34" 600 1450 basechar 0
AnchorPoint: "Anchor-32" 600 0 basechar 0
LayerCount: 2
Fore
SplineSet
86 1450 m 1,0,-1
 348 1450 l 1,1,-1
 602 358 l 1,2,-1
 852 1450 l 1,3,-1
 1112 1450 l 1,4,-1
 728 0 l 1,5,-1
 468 0 l 1,6,-1
 86 1450 l 1,0,-1
EndSplineSet
Substitution2: "'fwid' Full Widths lookup 32 subtable" uniFF36
Substitution2: "'c2sc' Capitals to Small Capitals lookup 26 subtable" v.sc
AlternateSubs2: "'aalt' Access All Alternates lookup 1 subtable" v.sc uniFF36
EndChar

StartChar: W
Encoding: 87 87 22
Width: 1200
GlyphClass: 2
Flags: W
AnchorPoint: "Anchor-34" 600 1450 basechar 0
AnchorPoint: "Anchor-32" 600 0 basechar 0
LayerCount: 2
Fore
SplineSet
74 1450 m 1,0,-1
 302 1450 l 1,1,-1
 368 448 l 1,2,-1
 406 452 l 1,3,-1
 528 1098 l 1,4,-1
 674 1098 l 1,5,-1
 796 452 l 1,6,-1
 832 448 l 1,7,-1
 894 1450 l 1,8,-1
 1122 1450 l 1,9,-1
 994 0 l 1,10,-1
 704 0 l 1,11,-1
 618 552 l 1,12,-1
 610 584 l 1,13,-1
 588 584 l 1,14,-1
 580 552 l 1,15,-1
 484 0 l 1,16,-1
 198 0 l 1,17,-1
 74 1450 l 1,0,-1
EndSplineSet
Substitution2: "'fwid' Full Widths lookup 32 subtable" uniFF37
Substitution2: "'c2sc' Capitals to Small Capitals lookup 26 subtable" w.sc
AlternateSubs2: "'aalt' Access All Alternates lookup 1 subtable" w.sc uniFF37
EndChar

StartChar: X
Encoding: 88 88 23
Width: 1200
GlyphClass: 2
Flags: W
AnchorPoint: "Anchor-38" 988 -70 basechar 0
AnchorPoint: "Anchor-34" 600 1450 basechar 0
AnchorPoint: "Anchor-32" 600 0 basechar 0
LayerCount: 2
Fore
SplineSet
426 758 m 1,0,-1
 116 1450 l 1,1,-1
 388 1450 l 1,2,-1
 592 980 l 1,3,-1
 808 1450 l 1,4,-1
 1068 1450 l 1,5,-1
 766 770 l 1,6,-1
 1106 0 l 1,7,-1
 832 0 l 1,8,-1
 598 546 l 1,9,-1
 366 0 l 1,10,-1
 96 0 l 1,11,-1
 426 758 l 1,0,-1
EndSplineSet
Substitution2: "'fwid' Full Widths lookup 32 subtable" uniFF38
Substitution2: "'c2sc' Capitals to Small Capitals lookup 26 subtable" x.sc
AlternateSubs2: "'aalt' Access All Alternates lookup 1 subtable" x.sc uniFF38
EndChar

StartChar: Y
Encoding: 89 89 24
Width: 1200
GlyphClass: 2
Flags: W
AnchorPoint: "Anchor-35" 98 1450 basechar 0
AnchorPoint: "Anchor-34" 600 1450 basechar 0
AnchorPoint: "Anchor-32" 600 0 basechar 0
LayerCount: 2
Fore
SplineSet
462 558 m 1,0,-1
 88 1450 l 1,1,-1
 370 1450 l 1,2,-1
 604 836 l 1,3,-1
 836 1450 l 1,4,-1
 1112 1450 l 1,5,-1
 740 558 l 1,6,-1
 740 0 l 1,7,-1
 462 0 l 1,8,-1
 462 558 l 1,0,-1
EndSplineSet
Substitution2: "'fwid' Full Widths lookup 32 subtable" uniFF39
Substitution2: "'c2sc' Capitals to Small Capitals lookup 26 subtable" y.sc
AlternateSubs2: "'aalt' Access All Alternates lookup 1 subtable" y.sc uniFF39
EndChar

StartChar: Z
Encoding: 90 90 25
Width: 1200
GlyphClass: 2
Flags: W
AnchorPoint: "Anchor-36" 600 714 basechar 0
AnchorPoint: "Anchor-34" 600 1450 basechar 0
AnchorPoint: "Anchor-32" 600 0 basechar 0
LayerCount: 2
Fore
SplineSet
104 224 m 1,0,-1
 760 1212 l 1,1,-1
 134 1212 l 1,2,-1
 134 1450 l 1,3,-1
 1074 1450 l 1,4,-1
 1074 1208 l 1,5,-1
 428 228 l 1,6,-1
 1104 228 l 1,7,-1
 1104 0 l 1,8,-1
 104 0 l 1,9,-1
 104 224 l 1,0,-1
EndSplineSet
Substitution2: "'fwid' Full Widths lookup 32 subtable" uniFF3A
Substitution2: "'c2sc' Capitals to Small Capitals lookup 26 subtable" z.sc
AlternateSubs2: "'aalt' Access All Alternates lookup 1 subtable" z.sc uniFF3A
EndChar

StartChar: a
Encoding: 97 97 26
Width: 1200
GlyphClass: 2
Flags: W
AnchorPoint: "Anchor-36" 575 550 basechar 0
AnchorPoint: "Anchor-34" 613 1102 basechar 0
AnchorPoint: "Anchor-33" 939 0 basechar 0
AnchorPoint: "Anchor-32" 571 -10 basechar 0
LayerCount: 2
Fore
SplineSet
226 67 m 128,-1,1
 135 154 135 154 135 304 c 0,2,3
 135 510 135 510 291 592 c 128,-1,4
 447 674 447 674 681 674 c 2,5,-1
 803 674 l 1,6,-1
 803 718 l 2,7,8
 803 763 803 763 784 808.5 c 128,-1,9
 765 854 765 854 719 886 c 128,-1,10
 673 918 673 918 596 918 c 0,11,12
 521 918 521 918 452.5 887.5 c 128,-1,13
 384 857 384 857 317 806 c 1,14,-1
 197 958 l 1,15,16
 289 1035 289 1035 387.5 1074.5 c 128,-1,17
 486 1114 486 1114 621 1114 c 0,18,19
 850 1114 850 1114 947.5 1005 c 128,-1,20
 1045 896 1045 896 1045 704 c 2,21,-1
 1045 316 l 2,22,23
 1045 190 1045 190 1065 0 c 1,24,-1
 817 0 l 1,25,26
 810 61 810 61 807 142 c 1,27,28
 714 -20 714 -20 491 -20 c 0,29,0
 317 -20 317 -20 226 67 c 128,-1,1
410.5 199 m 128,-1,31
 468 160 468 160 551 160 c 0,32,33
 678 160 678 160 739.5 249 c 128,-1,34
 801 338 801 338 801 500 c 1,35,-1
 719 500 l 2,36,37
 536 500 536 500 444.5 458.5 c 128,-1,38
 353 417 353 417 353 319 c 0,39,30
 353 238 353 238 410.5 199 c 128,-1,31
EndSplineSet
Substitution2: "Single Substitution lookup 63 subtable" ordfeminine
Substitution2: "'ss06' Style Set 6 lookup 46 subtable" a.alternate
Substitution2: "'fwid' Full Widths lookup 32 subtable" uniFF41
Substitution2: "'smcp' Lowercase to Small Capitals lookup 27 subtable" a.sc
Substitution2: "'sinf' Scientific Inferiors lookup 14 subtable" uni2090
Substitution2: "'subs' Subscript lookup 13 subtable" uni2090
AlternateSubs2: "'aalt' Access All Alternates lookup 1 subtable" uni2090 ordfeminine a.sc uniFF41 a.alternate
EndChar

StartChar: b
Encoding: 98 98 27
Width: 1200
GlyphClass: 2
Flags: W
AnchorPoint: "Anchor-36" 590 774 basechar 0
AnchorPoint: "Anchor-34" 542 1580 basechar 0
AnchorPoint: "Anchor-32" 560 0 basechar 0
LayerCount: 2
Fore
SplineSet
505.5 8.5 m 128,-1,1
 436 39 436 39 378 124 c 1,2,-1
 372 0 l 1,3,-1
 138 0 l 1,4,-1
 140 29 l 2,5,6
 146 159 146 159 146 244 c 2,7,-1
 146 1580 l 1,8,-1
 392 1580 l 1,9,-1
 392 940 l 1,10,11
 444 1026 444 1026 519 1068 c 128,-1,12
 594 1110 594 1110 670 1110 c 0,13,14
 809 1110 809 1110 896.5 1031.5 c 128,-1,15
 984 953 984 953 1023 823.5 c 128,-1,16
 1062 694 1062 694 1062 534 c 0,17,18
 1062 390 1062 390 1018.5 263 c 128,-1,19
 975 136 975 136 886 57 c 128,-1,20
 797 -22 797 -22 668 -22 c 0,21,0
 575 -22 575 -22 505.5 8.5 c 128,-1,1
398 356 m 128,-1,23
 420 272 420 272 469.5 215 c 128,-1,24
 519 158 519 158 596 158 c 0,25,26
 679 158 679 158 728.5 215.5 c 128,-1,27
 778 273 778 273 798 357 c 128,-1,28
 818 441 818 441 818 528 c 0,29,30
 818 694 818 694 770 801 c 128,-1,31
 722 908 722 908 608 908 c 0,32,33
 529 908 529 908 477 854.5 c 128,-1,34
 425 801 425 801 400.5 714 c 128,-1,35
 376 627 376 627 376 524 c 0,36,22
 376 440 376 440 398 356 c 128,-1,23
EndSplineSet
Substitution2: "'fwid' Full Widths lookup 32 subtable" uniFF42
Substitution2: "'smcp' Lowercase to Small Capitals lookup 27 subtable" b.sc
AlternateSubs2: "'aalt' Access All Alternates lookup 1 subtable" b.sc uniFF42
EndChar

StartChar: c
Encoding: 99 99 28
Width: 1200
GlyphClass: 2
Flags: W
AnchorPoint: "Anchor-36" 599 552 basechar 0
AnchorPoint: "Anchor-34" 613 1116 basechar 0
AnchorPoint: "Anchor-32" 645 -4 basechar 0
LayerCount: 2
Fore
SplineSet
380 49.5 m 128,-1,1
 259 117 259 117 190 245 c 128,-1,2
 121 373 121 373 121 550 c 0,3,4
 121 720 121 720 188.5 848 c 128,-1,5
 256 976 256 976 380 1046 c 128,-1,6
 504 1116 504 1116 669 1116 c 0,7,8
 813 1116 813 1116 909 1062 c 128,-1,9
 1005 1008 1005 1008 1069 920 c 1,10,-1
 915 776 l 1,11,12
 859 839 859 839 805 871.5 c 128,-1,13
 751 904 751 904 673 904 c 0,14,15
 584 904 584 904 514.5 861 c 128,-1,16
 445 818 445 818 406 739 c 128,-1,17
 367 660 367 660 367 556 c 0,18,19
 367 445 367 445 409.5 364 c 128,-1,20
 452 283 452 283 520.5 240.5 c 128,-1,21
 589 198 589 198 665 198 c 0,22,23
 736 198 736 198 805.5 238 c 128,-1,24
 875 278 875 278 925 338 c 1,25,-1
 1079 196 l 1,26,27
 1002 101 1002 101 901 41.5 c 128,-1,28
 800 -18 800 -18 655 -18 c 0,29,0
 501 -18 501 -18 380 49.5 c 128,-1,1
EndSplineSet
Substitution2: "'fwid' Full Widths lookup 32 subtable" uniFF43
Substitution2: "'smcp' Lowercase to Small Capitals lookup 27 subtable" c.sc
AlternateSubs2: "'aalt' Access All Alternates lookup 1 subtable" c.sc uniFF43
EndChar

StartChar: d
Encoding: 100 100 29
Width: 1200
GlyphClass: 2
Flags: W
AnchorPoint: "Anchor-37" 1117 1000 basechar 0
AnchorPoint: "Anchor-36" 603 784 basechar 0
AnchorPoint: "Anchor-34" 607 1582 basechar 0
AnchorPoint: "Anchor-32" 639 0 basechar 0
LayerCount: 2
Fore
SplineSet
308.5 65 m 128,-1,1
 215 146 215 146 169 278.5 c 128,-1,2
 123 411 123 411 123 566 c 0,3,4
 123 714 123 714 173.5 840 c 128,-1,5
 224 966 224 966 319 1041 c 128,-1,6
 414 1116 414 1116 543 1116 c 0,7,8
 650 1116 650 1116 722.5 1086.5 c 128,-1,9
 795 1057 795 1057 835 978 c 1,10,-1
 835 1580 l 1,11,-1
 1071 1580 l 1,12,-1
 1071 240 l 2,13,14
 1071 205 1071 205 1072 158.5 c 128,-1,15
 1073 112 1073 112 1074 87 c 2,16,-1
 1077 0 l 1,17,-1
 849 0 l 1,18,-1
 833 128 l 1,19,20
 783 51 783 51 715 17.5 c 128,-1,21
 647 -16 647 -16 539 -16 c 0,22,0
 402 -16 402 -16 308.5 65 c 128,-1,1
391 374.5 m 128,-1,24
 419 282 419 282 474.5 221 c 128,-1,25
 530 160 530 160 607 160 c 0,26,27
 686 160 686 160 738 222 c 128,-1,28
 790 284 790 284 813.5 375 c 128,-1,29
 837 466 837 466 837 556 c 0,30,31
 837 648 837 648 810.5 736.5 c 128,-1,32
 784 825 784 825 729 882.5 c 128,-1,33
 674 940 674 940 593 940 c 0,34,35
 518 940 518 940 466 881.5 c 128,-1,36
 414 823 414 823 388.5 735 c 128,-1,37
 363 647 363 647 363 560 c 0,38,23
 363 467 363 467 391 374.5 c 128,-1,24
EndSplineSet
Substitution2: "'fwid' Full Widths lookup 32 subtable" uniFF44
Substitution2: "'smcp' Lowercase to Small Capitals lookup 27 subtable" d.sc
AlternateSubs2: "'aalt' Access All Alternates lookup 1 subtable" d.sc uniFF44
EndChar

StartChar: e
Encoding: 101 101 30
Width: 1200
GlyphClass: 2
Flags: W
AnchorPoint: "Anchor-36" 592 552 basechar 0
AnchorPoint: "Anchor-34" 620 1122 basechar 0
AnchorPoint: "Anchor-33" 636 0 basechar 0
AnchorPoint: "Anchor-32" 604 -16 basechar 0
LayerCount: 2
Fore
SplineSet
388 44.5 m 128,-1,1
 271 109 271 109 197.5 236.5 c 128,-1,2
 124 364 124 364 124 544 c 0,3,4
 124 713 124 713 185 843.5 c 128,-1,5
 246 974 246 974 358.5 1046 c 128,-1,6
 471 1118 471 1118 622 1118 c 0,7,8
 863 1118 863 1118 969.5 953 c 128,-1,9
 1076 788 1076 788 1076 484 c 1,10,-1
 364 484 l 1,11,12
 370 336 370 336 445.5 260 c 128,-1,13
 521 184 521 184 650 184 c 0,14,15
 744 184 744 184 831.5 211 c 128,-1,16
 919 238 919 238 956 272 c 1,17,-1
 1048 104 l 1,18,19
 1009 73 1009 73 941.5 44 c 128,-1,20
 874 15 874 15 792.5 -2.5 c 128,-1,21
 711 -20 711 -20 634 -20 c 0,22,0
 505 -20 505 -20 388 44.5 c 128,-1,1
854 668 m 1,23,24
 854 743 854 743 824 802.5 c 128,-1,25
 794 862 794 862 741 896 c 128,-1,26
 688 930 688 930 622 930 c 0,27,28
 555 930 555 930 498 897 c 128,-1,29
 441 864 441 864 407.5 804.5 c 128,-1,30
 374 745 374 745 374 668 c 1,31,-1
 854 668 l 1,23,24
EndSplineSet
Substitution2: "'fwid' Full Widths lookup 32 subtable" uniFF45
Substitution2: "'smcp' Lowercase to Small Capitals lookup 27 subtable" e.sc
Substitution2: "'sinf' Scientific Inferiors lookup 14 subtable" uni2091
Substitution2: "'subs' Subscript lookup 13 subtable" uni2091
AlternateSubs2: "'aalt' Access All Alternates lookup 1 subtable" uni2091 e.sc uniFF45
EndChar

StartChar: f
Encoding: 102 102 31
Width: 1200
GlyphClass: 2
Flags: W
AnchorPoint: "Anchor-36" 603 792 basechar 0
AnchorPoint: "Anchor-34" 591 1584 basechar 0
AnchorPoint: "Anchor-32" 577 4 basechar 0
LayerCount: 2
Fore
SplineSet
425 876 m 1,0,-1
 145 876 l 1,1,-1
 145 1068 l 1,2,-1
 427 1068 l 1,3,-1
 427 1260 l 2,4,5
 427 1434 427 1434 529.5 1509 c 128,-1,6
 632 1584 632 1584 813 1584 c 256,7,8
 994 1584 994 1584 1055 1576 c 1,9,-1
 1055 1382 l 1,10,11
 1044 1382 1044 1382 1016 1384 c 0,12,13
 930 1388 930 1388 875 1388 c 0,14,15
 808 1388 808 1388 763 1375 c 128,-1,16
 718 1362 718 1362 692.5 1326.5 c 128,-1,17
 667 1291 667 1291 667 1226 c 2,18,-1
 667 1068 l 1,19,-1
 975 1068 l 1,20,-1
 975 876 l 1,21,-1
 671 876 l 1,22,-1
 671 0 l 1,23,-1
 425 0 l 1,24,-1
 425 876 l 1,0,-1
EndSplineSet
Substitution2: "Single Substitution lookup 73 subtable" f.alternate
Substitution2: "'fwid' Full Widths lookup 32 subtable" uniFF46
Substitution2: "'smcp' Lowercase to Small Capitals lookup 27 subtable" f.sc
AlternateSubs2: "'aalt' Access All Alternates lookup 1 subtable" f.sc uniFF46 f.alternate
EndChar

StartChar: g
Encoding: 103 103 32
Width: 1200
GlyphClass: 2
Flags: W
AnchorPoint: "Anchor-36" 587 350 basechar 0
AnchorPoint: "Anchor-34" 569 1122 basechar 0
AnchorPoint: "Anchor-32" 557 -422 basechar 0
LayerCount: 2
Fore
SplineSet
368.5 -403 m 128,-1,1
 296 -384 296 -384 233 -348 c 0,2,3
 166 -310 166 -310 124.5 -252.5 c 128,-1,4
 83 -195 83 -195 83 -122 c 0,5,6
 83 17 83 17 217 126 c 1,7,8
 149 190 149 190 149 284 c 0,9,10
 149 339 149 339 173 383 c 128,-1,11
 197 427 197 427 245 472 c 1,12,13
 197 502 197 502 157 567 c 128,-1,14
 117 632 117 632 117 746 c 0,15,16
 117 863 117 863 178 947.5 c 128,-1,17
 239 1032 239 1032 339.5 1075 c 128,-1,18
 440 1118 440 1118 555 1118 c 0,19,20
 594 1118 594 1118 626 1115 c 128,-1,21
 658 1112 658 1112 687 1102 c 1,22,-1
 1117 1102 l 1,23,-1
 1117 910 l 1,24,-1
 911 910 l 1,25,26
 955 845 955 845 955 742 c 0,27,28
 955 641 955 641 902.5 552.5 c 128,-1,29
 850 464 850 464 760 411 c 128,-1,30
 670 358 670 358 563 358 c 0,31,32
 461 358 461 358 389 383 c 1,33,34
 363 368 363 368 352 349.5 c 128,-1,35
 341 331 341 331 341 304 c 0,36,37
 341 265 341 265 382.5 245.5 c 128,-1,38
 424 226 424 226 491 226 c 2,39,-1
 606 227 l 2,40,41
 636 228 636 228 681 228 c 0,42,43
 764 228 764 228 825 215 c 128,-1,44
 886 202 886 202 931 172 c 0,45,46
 983 136 983 136 1015 78.5 c 128,-1,47
 1047 21 1047 21 1047 -46 c 0,48,49
 1047 -122 1047 -122 1007.5 -194.5 c 128,-1,50
 968 -267 968 -267 895 -320 c 0,51,52
 830 -367 830 -367 733 -394.5 c 128,-1,53
 636 -422 636 -422 533 -422 c 0,54,0
 441 -422 441 -422 368.5 -403 c 128,-1,1
379 -192.5 m 128,-1,56
 445 -226 445 -226 541 -226 c 0,57,58
 685 -226 685 -226 761 -172 c 0,59,60
 793 -151 793 -151 808 -124.5 c 128,-1,61
 823 -98 823 -98 823 -62 c 0,62,63
 823 -7 823 -7 776 11.5 c 128,-1,64
 729 30 729 30 667 28 c 2,65,-1
 639 26 l 2,66,67
 553 20 553 20 509 20 c 0,68,69
 485 20 485 20 446.5 27.5 c 128,-1,70
 408 35 408 35 378 47 c 1,71,72
 347 19 347 19 330 -16 c 128,-1,73
 313 -51 313 -51 313 -84 c 0,74,55
 313 -159 313 -159 379 -192.5 c 128,-1,56
393.5 589.5 m 128,-1,76
 446 536 446 536 535 536 c 0,77,78
 626 536 626 536 677.5 589 c 128,-1,79
 729 642 729 642 729 740 c 0,80,81
 729 839 729 839 677.5 895.5 c 128,-1,82
 626 952 626 952 537 952 c 0,83,84
 480 952 480 952 435.5 926.5 c 128,-1,85
 391 901 391 901 366 853.5 c 128,-1,86
 341 806 341 806 341 740 c 0,87,75
 341 643 341 643 393.5 589.5 c 128,-1,76
EndSplineSet
Substitution2: "'ss01' Style Set 1 lookup 41 subtable" g.alt
Substitution2: "'fwid' Full Widths lookup 32 subtable" uniFF47
Substitution2: "'smcp' Lowercase to Small Capitals lookup 27 subtable" g.sc
AlternateSubs2: "'aalt' Access All Alternates lookup 1 subtable" g.sc uniFF47 g.alt
EndChar

StartChar: h
Encoding: 104 104 33
Width: 1200
GlyphClass: 2
Flags: W
AnchorPoint: "Anchor-36" 597 786 basechar 0
AnchorPoint: "Anchor-34" 599 1582 basechar 0
AnchorPoint: "Anchor-32" 625 0 basechar 0
LayerCount: 2
Fore
SplineSet
143 1580 m 1,0,-1
 389 1580 l 1,1,-1
 389 946 l 1,2,3
 452 1035 452 1035 528.5 1074.5 c 128,-1,4
 605 1114 605 1114 703 1114 c 0,5,6
 894 1114 894 1114 975.5 1004.5 c 128,-1,7
 1057 895 1057 895 1057 684 c 2,8,-1
 1057 0 l 1,9,-1
 809 0 l 1,10,-1
 809 574 l 2,11,12
 809 684 809 684 795 749.5 c 128,-1,13
 781 815 781 815 741.5 848.5 c 128,-1,14
 702 882 702 882 627 882 c 0,15,16
 511 882 511 882 450 775.5 c 128,-1,17
 389 669 389 669 389 492 c 2,18,-1
 389 0 l 1,19,-1
 143 0 l 1,20,-1
 143 1580 l 1,0,-1
EndSplineSet
Substitution2: "'fwid' Full Widths lookup 32 subtable" uniFF48
Substitution2: "'smcp' Lowercase to Small Capitals lookup 27 subtable" h.sc
Substitution2: "'sinf' Scientific Inferiors lookup 14 subtable" uni2095
Substitution2: "'subs' Subscript lookup 13 subtable" uni2095
AlternateSubs2: "'aalt' Access All Alternates lookup 1 subtable" uni2095 h.sc uniFF48
EndChar

StartChar: i
Encoding: 105 105 34
Width: 1200
GlyphClass: 2
Flags: W
AnchorPoint: "Anchor-36" 579 796 basechar 0
AnchorPoint: "Anchor-34" 563 1644 basechar 0
AnchorPoint: "Anchor-32" 565 8 basechar 0
LayerCount: 2
Fore
SplineSet
193 1100 m 1,0,-1
 735 1100 l 1,1,-1
 735 180 l 1,2,-1
 1007 180 l 1,3,-1
 1007 0 l 1,4,-1
 211 0 l 1,5,-1
 211 180 l 1,6,-1
 491 180 l 1,7,-1
 491 926 l 1,8,-1
 193 926 l 1,9,-1
 193 1100 l 1,0,-1
459 1556.5 m 128,-1,11
 495 1592 495 1592 581 1592 c 0,12,13
 668 1592 668 1592 703.5 1556.5 c 128,-1,14
 739 1521 739 1521 739 1434 c 0,15,16
 739 1348 739 1348 703.5 1312 c 128,-1,17
 668 1276 668 1276 581 1276 c 0,18,19
 496 1276 496 1276 459.5 1312.5 c 128,-1,20
 423 1349 423 1349 423 1434 c 0,21,10
 423 1521 423 1521 459 1556.5 c 128,-1,11
EndSplineSet
Substitution2: "Single Substitution lookup 61 subtable" dotlessi
Substitution2: "'fwid' Full Widths lookup 32 subtable" uniFF49
Substitution2: "'smcp' Lowercase to Small Capitals lookup 27 subtable" i.sc
Substitution2: "'locl' Localized Forms in Latin lookup 7 per glyph data 4" i.loclTRK
Substitution2: "'locl' Localized Forms in Latin lookup 7 per glyph data 3" i.loclTRK
Substitution2: "'locl' Localized Forms in Latin lookup 7 per glyph data 2" i.loclTRK
Substitution2: "'locl' Localized Forms in Latin lookup 7 per glyph data 1" i.loclTRK
Substitution2: "'locl' Localized Forms in Latin lookup 7 per glyph data 0" i.loclTRK
AlternateSubs2: "'aalt' Access All Alternates lookup 1 subtable" i.loclTRK i.sc uniFF49
EndChar

StartChar: j
Encoding: 106 106 35
Width: 1200
GlyphClass: 2
Flags: W
AnchorPoint: "Anchor-36" 633 638 basechar 0
AnchorPoint: "Anchor-34" 649 1598 basechar 0
LayerCount: 2
Fore
SplineSet
468 -108 m 128,-1,1
 519 -164 519 -164 601 -164 c 0,2,3
 652 -164 652 -164 691.5 -136.5 c 128,-1,4
 731 -109 731 -109 752 -64 c 128,-1,5
 773 -19 773 -19 773 34 c 2,6,-1
 773 916 l 1,7,-1
 353 916 l 1,8,-1
 353 1100 l 1,9,-1
 1017 1100 l 1,10,-1
 1017 60 l 2,11,12
 1017 -71 1017 -71 964.5 -167.5 c 128,-1,13
 912 -264 912 -264 818.5 -316 c 128,-1,14
 725 -368 725 -368 603 -368 c 256,15,16
 481 -368 481 -368 386 -317 c 128,-1,17
 291 -266 291 -266 237 -172 c 128,-1,18
 183 -78 183 -78 183 46 c 1,19,-1
 417 46 l 1,20,0
 417 -52 417 -52 468 -108 c 128,-1,1
725 1558.5 m 128,-1,22
 761 1594 761 1594 847 1594 c 0,23,24
 934 1594 934 1594 969.5 1558.5 c 128,-1,25
 1005 1523 1005 1523 1005 1436 c 0,26,27
 1005 1350 1005 1350 969.5 1314 c 128,-1,28
 934 1278 934 1278 847 1278 c 0,29,30
 762 1278 762 1278 725.5 1314.5 c 128,-1,31
 689 1351 689 1351 689 1436 c 0,32,21
 689 1523 689 1523 725 1558.5 c 128,-1,22
EndSplineSet
Substitution2: "Single Substitution lookup 61 subtable" uni0237
Substitution2: "'ss03' Style Set 3 lookup 43 subtable" j.alt
Substitution2: "'fwid' Full Widths lookup 32 subtable" uniFF4A
Substitution2: "'smcp' Lowercase to Small Capitals lookup 27 subtable" j.sc
AlternateSubs2: "'aalt' Access All Alternates lookup 1 subtable" j.sc uniFF4A j.alt
EndChar

StartChar: k
Encoding: 107 107 36
Width: 1200
GlyphClass: 2
Flags: W
AnchorPoint: "Anchor-36" 563 774 basechar 0
AnchorPoint: "Anchor-34" 529 1574 basechar 0
AnchorPoint: "Anchor-32" 529 6 basechar 0
LayerCount: 2
Fore
SplineSet
379 493 m 1,0,-1
 379 0 l 1,1,-1
 143 0 l 1,2,-1
 143 1580 l 1,3,-1
 379 1580 l 1,4,-1
 379 601 l 1,5,-1
 745 1100 l 1,6,-1
 1017 1100 l 1,7,-1
 617 552 l 1,8,-1
 1057 0 l 1,9,-1
 781 0 l 1,10,-1
 379 493 l 1,0,-1
EndSplineSet
Substitution2: "'fwid' Full Widths lookup 32 subtable" uniFF4B
Substitution2: "'smcp' Lowercase to Small Capitals lookup 27 subtable" k.sc
Substitution2: "'sinf' Scientific Inferiors lookup 14 subtable" uni2096
Substitution2: "'subs' Subscript lookup 13 subtable" uni2096
AlternateSubs2: "'aalt' Access All Alternates lookup 1 subtable" uni2096 k.sc uniFF4B
EndChar

StartChar: l
Encoding: 108 108 37
Width: 1200
GlyphClass: 2
Flags: W
AnchorPoint: "Anchor-37" 1098 1602 basechar 0
AnchorPoint: "Anchor-36" 580 774 basechar 0
AnchorPoint: "Anchor-34" 584 1582 basechar 0
AnchorPoint: "Anchor-32" 594 0 basechar 0
LayerCount: 2
Fore
SplineSet
529.5 55.5 m 128,-1,1
 440 135 440 135 440 318 c 2,2,-1
 440 1402 l 1,3,-1
 114 1402 l 1,4,-1
 114 1580 l 1,5,-1
 682 1580 l 1,6,-1
 682 366 l 2,7,8
 682 260 682 260 725.5 220 c 128,-1,9
 769 180 769 180 852 180 c 0,10,11
 901 180 901 180 962 192.5 c 128,-1,12
 1023 205 1023 205 1078 232 c 1,13,-1
 1078 26 l 1,14,15
 1005 -4 1005 -4 944 -14 c 128,-1,16
 883 -24 883 -24 804 -24 c 0,17,0
 619 -24 619 -24 529.5 55.5 c 128,-1,1
EndSplineSet
Substitution2: "'fwid' Full Widths lookup 32 subtable" uniFF4C
Substitution2: "'smcp' Lowercase to Small Capitals lookup 27 subtable" l.sc
Substitution2: "'sinf' Scientific Inferiors lookup 14 subtable" uni2097
Substitution2: "'subs' Subscript lookup 13 subtable" uni2097
AlternateSubs2: "'aalt' Access All Alternates lookup 1 subtable" uni2097 l.sc uniFF4C
EndChar

StartChar: m
Encoding: 109 109 38
Width: 1200
GlyphClass: 2
Flags: W
AnchorPoint: "Anchor-36" 601 560 basechar 0
AnchorPoint: "Anchor-34" 603 1114 basechar 0
AnchorPoint: "Anchor-32" 599 0 basechar 0
LayerCount: 2
Fore
SplineSet
71 1100 m 1,1,-1
 291 1100 l 1,2,-1
 302 984 l 1,3,4
 365 1120 365 1120 485 1120 c 0,5,6
 551 1120 551 1120 594.5 1084 c 128,-1,7
 638 1048 638 1048 659 962 c 1,8,9
 684 1043 684 1043 745.5 1080.5 c 128,-1,10
 807 1118 807 1118 884 1118 c 0,11,12
 996 1118 996 1118 1062.5 1035 c 128,-1,13
 1129 952 1129 952 1129 786 c 2,14,-1
 1129 0 l 1,15,-1
 892 0 l 1,16,-1
 892 764 l 2,17,18
 892 846 892 846 875.5 883 c 128,-1,19
 859 920 859 920 817 920 c 0,20,21
 724 920 724 920 724 774 c 2,22,-1
 724 0 l 1,23,-1
 491 0 l 1,24,-1
 491 764 l 2,25,26
 491 843 491 843 469 881.5 c 128,-1,27
 447 920 447 920 401 920 c 0,28,29
 360 920 360 920 340 886 c 128,-1,30
 320 852 320 852 320 774 c 2,31,-1
 320 0 l 1,32,-1
 86 0 l 1,33,-1
 86 872 l 2,34,0
 86 995 86 995 71 1100 c 1,1,-1
EndSplineSet
Substitution2: "'fwid' Full Widths lookup 32 subtable" uniFF4D
Substitution2: "'smcp' Lowercase to Small Capitals lookup 27 subtable" m.sc
Substitution2: "'sinf' Scientific Inferiors lookup 14 subtable" uni2098
Substitution2: "'subs' Subscript lookup 13 subtable" uni2098
AlternateSubs2: "'aalt' Access All Alternates lookup 1 subtable" uni2098 m.sc uniFF4D
EndChar

StartChar: n
Encoding: 110 110 39
Width: 1200
GlyphClass: 2
Flags: W
AnchorPoint: "Anchor-36" 599 560 basechar 0
AnchorPoint: "Anchor-34" 613 1114 basechar 0
AnchorPoint: "Anchor-32" 597 0 basechar 0
LayerCount: 2
Fore
SplineSet
152 958.5 m 128,-1,1
 149 1017 149 1017 145 1072 c 2,2,-1
 143 1102 l 1,3,-1
 379 1102 l 1,4,-1
 393 940 l 1,5,6
 449 1031 449 1031 530 1075.5 c 128,-1,7
 611 1120 611 1120 721 1120 c 0,8,9
 828 1120 828 1120 903.5 1069 c 128,-1,10
 979 1018 979 1018 1018 922 c 128,-1,11
 1057 826 1057 826 1057 692 c 2,12,-1
 1057 0 l 1,13,-1
 809 0 l 1,14,-1
 809 612 l 2,15,16
 809 744 809 744 766.5 836 c 128,-1,17
 724 928 724 928 613 928 c 0,18,19
 496 928 496 928 445.5 817 c 128,-1,20
 395 706 395 706 395 548 c 2,21,-1
 395 0 l 1,22,-1
 155 0 l 1,23,-1
 155 844 l 2,24,0
 155 900 155 900 152 958.5 c 128,-1,1
EndSplineSet
Substitution2: "'fwid' Full Widths lookup 32 subtable" uniFF4E
Substitution2: "'smcp' Lowercase to Small Capitals lookup 27 subtable" n.sc
Substitution2: "'sinf' Scientific Inferiors lookup 14 subtable" uni2099
Substitution2: "'subs' Subscript lookup 13 subtable" uni2099
AlternateSubs2: "'aalt' Access All Alternates lookup 1 subtable" uni2099 n.sc uniFF4E
EndChar

StartChar: o
Encoding: 111 111 40
Width: 1200
GlyphClass: 2
Flags: W
AnchorPoint: "Anchor-37" 1020 1110 basechar 0
AnchorPoint: "Anchor-36" 600 548 basechar 0
AnchorPoint: "Anchor-34" 600 1106 basechar 0
AnchorPoint: "Anchor-33" 610 -4 basechar 0
AnchorPoint: "Anchor-32" 600 -20 basechar 0
LayerCount: 2
Fore
SplineSet
343 48.5 m 128,-1,1
 237 117 237 117 182.5 245.5 c 128,-1,2
 128 374 128 374 128 552 c 0,3,4
 128 725 128 725 186 853.5 c 128,-1,5
 244 982 244 982 350.5 1051 c 128,-1,6
 457 1120 457 1120 600 1120 c 256,7,8
 743 1120 743 1120 849.5 1051.5 c 128,-1,9
 956 983 956 983 1014 854.5 c 128,-1,10
 1072 726 1072 726 1072 552 c 0,11,12
 1072 375 1072 375 1017.5 246.5 c 128,-1,13
 963 118 963 118 857 49 c 128,-1,14
 751 -20 751 -20 600 -20 c 256,15,0
 449 -20 449 -20 343 48.5 c 128,-1,1
429.5 286.5 m 128,-1,17
 489 192 489 192 596 192 c 0,18,19
 708 192 708 192 769 286.5 c 128,-1,20
 830 381 830 381 830 548 c 0,21,22
 830 658 830 658 802 739.5 c 128,-1,23
 774 821 774 821 721 864.5 c 128,-1,24
 668 908 668 908 596 908 c 0,25,26
 527 908 527 908 476 864.5 c 128,-1,27
 425 821 425 821 397.5 739.5 c 128,-1,28
 370 658 370 658 370 548 c 0,29,16
 370 381 370 381 429.5 286.5 c 128,-1,17
EndSplineSet
Substitution2: "Single Substitution lookup 63 subtable" ordmasculine
Substitution2: "'fwid' Full Widths lookup 32 subtable" uniFF4F
Substitution2: "'smcp' Lowercase to Small Capitals lookup 27 subtable" o.sc
Substitution2: "'sinf' Scientific Inferiors lookup 14 subtable" uni2092
Substitution2: "'subs' Subscript lookup 13 subtable" uni2092
AlternateSubs2: "'aalt' Access All Alternates lookup 1 subtable" uni2092 ordmasculine o.sc uniFF4F
EndChar

StartChar: p
Encoding: 112 112 41
Width: 1200
GlyphClass: 2
Flags: W
AnchorPoint: "Anchor-36" 591 382 basechar 0
AnchorPoint: "Anchor-34" 591 1124 basechar 0
AnchorPoint: "Anchor-32" 601 4 basechar 0
LayerCount: 2
Fore
SplineSet
126 1046 m 2,1,-1
 123 1100 l 1,2,-1
 355 1100 l 1,3,-1
 369 942 l 1,4,5
 423 1036 423 1036 493.5 1078 c 128,-1,6
 564 1120 564 1120 657 1120 c 0,7,8
 799 1120 799 1120 893.5 1035.5 c 128,-1,9
 988 951 988 951 1032.5 821 c 128,-1,10
 1077 691 1077 691 1077 551 c 0,11,12
 1077 416 1077 416 1033 288.5 c 128,-1,13
 989 161 989 161 890.5 76.5 c 128,-1,14
 792 -8 792 -8 638 -8 c 0,15,16
 549 -8 549 -8 486.5 24.5 c 128,-1,17
 424 57 424 57 377 128 c 1,18,-1
 377 -380 l 1,19,-1
 133 -380 l 1,20,-1
 133 862 l 2,21,0
 133 955 133 955 126 1046 c 2,1,-1
389 367 m 128,-1,23
 415 283 415 283 469 228.5 c 128,-1,24
 523 174 523 174 600 174 c 0,25,26
 676 174 676 174 729.5 228 c 128,-1,27
 783 282 783 282 809 367 c 128,-1,28
 835 452 835 452 835 545 c 0,29,30
 835 635 835 635 811 727.5 c 128,-1,31
 787 820 787 820 735.5 883 c 128,-1,32
 684 946 684 946 607 946 c 0,33,34
 531 946 531 946 475.5 883.5 c 128,-1,35
 420 821 420 821 391.5 726.5 c 128,-1,36
 363 632 363 632 363 539 c 0,37,22
 363 451 363 451 389 367 c 128,-1,23
EndSplineSet
Substitution2: "'fwid' Full Widths lookup 32 subtable" uniFF50
Substitution2: "'smcp' Lowercase to Small Capitals lookup 27 subtable" p.sc
Substitution2: "'sinf' Scientific Inferiors lookup 14 subtable" uni209A
Substitution2: "'subs' Subscript lookup 13 subtable" uni209A
AlternateSubs2: "'aalt' Access All Alternates lookup 1 subtable" uni209A p.sc uniFF50
EndChar

StartChar: q
Encoding: 113 113 42
Width: 1200
GlyphClass: 2
Flags: W
AnchorPoint: "Anchor-36" 607 380 basechar 0
AnchorPoint: "Anchor-34" 615 1052 basechar 0
AnchorPoint: "Anchor-32" 605 -362 basechar 0
LayerCount: 2
Fore
SplineSet
710.5 12.5 m 128,-1,1
 645 -20 645 -20 541 -20 c 0,2,3
 417 -20 417 -20 322 54.5 c 128,-1,4
 227 129 227 129 175 259 c 128,-1,5
 123 389 123 389 123 550 c 0,6,7
 123 716 123 716 171.5 845 c 128,-1,8
 220 974 220 974 312.5 1047 c 128,-1,9
 405 1120 405 1120 533 1120 c 0,10,11
 758 1120 758 1120 835 966 c 1,12,-1
 841 1104 l 1,13,-1
 1077 1104 l 1,14,-1
 1076 1075 l 2,15,16
 1069 949 1069 949 1069 878 c 2,17,-1
 1069 -362 l 1,18,-1
 825 -362 l 1,19,-1
 825 124 l 1,20,0
 776 45 776 45 710.5 12.5 c 128,-1,1
392.5 354 m 128,-1,22
 422 263 422 263 478 208.5 c 128,-1,23
 534 154 534 154 611 154 c 0,24,25
 686 154 686 154 737.5 215 c 128,-1,26
 789 276 789 276 814 367.5 c 128,-1,27
 839 459 839 459 839 550 c 0,28,29
 839 661 839 661 809 751.5 c 128,-1,30
 779 842 779 842 723.5 894 c 128,-1,31
 668 946 668 946 595 946 c 0,32,33
 524 946 524 946 471 891.5 c 128,-1,34
 418 837 418 837 390.5 746.5 c 128,-1,35
 363 656 363 656 363 550 c 0,36,21
 363 445 363 445 392.5 354 c 128,-1,22
EndSplineSet
Substitution2: "'fwid' Full Widths lookup 32 subtable" uniFF51
Substitution2: "'smcp' Lowercase to Small Capitals lookup 27 subtable" q.sc
AlternateSubs2: "'aalt' Access All Alternates lookup 1 subtable" q.sc uniFF51
EndChar

StartChar: r
Encoding: 114 114 43
Width: 1200
GlyphClass: 2
Flags: W
AnchorPoint: "Anchor-36" 604 562 basechar 0
AnchorPoint: "Anchor-34" 602 1104 basechar 0
AnchorPoint: "Anchor-32" 596 0 basechar 0
LayerCount: 2
Fore
SplineSet
293 350 m 2,0,1
 294 461 294 461 294 634 c 0,2,3
 294 740 294 740 288 791.5 c 128,-1,4
 282 843 282 843 268 920 c 1,5,-1
 104 920 l 1,6,-1
 104 1100 l 1,7,-1
 467 1100 l 1,8,-1
 504 914 l 1,9,10
 551 1033 551 1033 637 1078.5 c 128,-1,11
 723 1124 723 1124 816 1124 c 0,12,13
 880 1124 880 1124 962.5 1086 c 128,-1,14
 1045 1048 1045 1048 1096 998 c 1,15,-1
 958 834 l 1,16,17
 925 865 925 865 879.5 883.5 c 128,-1,18
 834 902 834 902 766 902 c 0,19,20
 703 902 703 902 650.5 858 c 128,-1,21
 598 814 598 814 567 728.5 c 128,-1,22
 536 643 536 643 536 522 c 2,23,-1
 536 0 l 1,24,-1
 292 0 l 1,25,-1
 293 350 l 2,0,1
EndSplineSet
Substitution2: "Single Substitution lookup 74 subtable" r.alternate
Substitution2: "'fwid' Full Widths lookup 32 subtable" uniFF52
Substitution2: "'smcp' Lowercase to Small Capitals lookup 27 subtable" r.sc
AlternateSubs2: "'aalt' Access All Alternates lookup 1 subtable" r.sc uniFF52 r.alternate
EndChar

StartChar: s
Encoding: 115 115 44
Width: 1200
GlyphClass: 2
Flags: W
AnchorPoint: "Anchor-36" 597 552 basechar 0
AnchorPoint: "Anchor-34" 601 1110 basechar 0
AnchorPoint: "Anchor-32" 601 -12 basechar 0
LayerCount: 2
Fore
SplineSet
352.5 34.5 m 128,-1,1
 247 83 247 83 159 186 c 1,2,-1
 293 334 l 1,3,4
 346 284 346 284 390 253 c 128,-1,5
 434 222 434 222 490 203 c 128,-1,6
 546 184 546 184 617 184 c 0,7,8
 667 184 667 184 714 198.5 c 128,-1,9
 761 213 761 213 791 242 c 128,-1,10
 821 271 821 271 821 314 c 0,11,12
 821 352 821 352 795.5 376.5 c 128,-1,13
 770 401 770 401 729 416 c 128,-1,14
 688 431 688 431 606 453 c 2,15,-1
 543 470 l 2,16,17
 429 500 429 500 353 537 c 128,-1,18
 277 574 277 574 234 634.5 c 128,-1,19
 191 695 191 695 191 786 c 0,20,21
 191 885 191 885 243 960.5 c 128,-1,22
 295 1036 295 1036 389.5 1078 c 128,-1,23
 484 1120 484 1120 607 1120 c 0,24,25
 737 1120 737 1120 835.5 1083.5 c 128,-1,26
 934 1047 934 1047 1005 974 c 1,27,-1
 869 828 l 1,28,29
 817 871 817 871 753.5 893.5 c 128,-1,30
 690 916 690 916 619 916 c 0,31,32
 560 916 560 916 513.5 900.5 c 128,-1,33
 467 885 467 885 441 857.5 c 128,-1,34
 415 830 415 830 415 794 c 0,35,36
 415 750 415 750 453 720 c 128,-1,37
 491 690 491 690 544 672 c 128,-1,38
 597 654 597 654 683 632 c 0,39,40
 708 626 708 626 765 610 c 0,41,42
 882 574 882 574 961.5 505.5 c 128,-1,43
 1041 437 1041 437 1041 308 c 0,44,45
 1041 147 1041 147 922.5 66.5 c 128,-1,46
 804 -14 804 -14 609 -14 c 0,47,0
 458 -14 458 -14 352.5 34.5 c 128,-1,1
EndSplineSet
Substitution2: "'fwid' Full Widths lookup 32 subtable" uniFF53
Substitution2: "'smcp' Lowercase to Small Capitals lookup 27 subtable" s.sc
Substitution2: "'sinf' Scientific Inferiors lookup 14 subtable" uni209B
Substitution2: "'subs' Subscript lookup 13 subtable" uni209B
AlternateSubs2: "'aalt' Access All Alternates lookup 1 subtable" uni209B s.sc uniFF53
EndChar

StartChar: t
Encoding: 116 116 45
Width: 1200
GlyphClass: 2
Flags: W
AnchorPoint: "Anchor-37" 1003 1441 basechar 0
AnchorPoint: "Anchor-36" 618 708 basechar 0
AnchorPoint: "Anchor-34" 606 1502 basechar 0
AnchorPoint: "Anchor-32" 730 -10 basechar 0
LayerCount: 2
Fore
SplineSet
526 56.5 m 128,-1,1
 450 125 450 125 450 262 c 2,2,-1
 450 906 l 1,3,-1
 150 906 l 1,4,-1
 150 1100 l 1,5,-1
 450 1100 l 1,6,-1
 450 1502 l 1,7,-1
 692 1502 l 1,8,-1
 692 1100 l 1,9,-1
 1002 1100 l 1,10,-1
 1002 906 l 1,11,-1
 692 906 l 1,12,-1
 692 368 l 2,13,14
 692 296 692 296 706.5 257 c 128,-1,15
 721 218 721 218 755.5 202 c 128,-1,16
 790 186 790 186 854 186 c 0,17,18
 888 186 888 186 950.5 194 c 128,-1,19
 1013 202 1013 202 1050 210 c 1,20,-1
 1050 18 l 1,21,22
 1008 7 1008 7 923.5 -2.5 c 128,-1,23
 839 -12 839 -12 776 -12 c 0,24,0
 602 -12 602 -12 526 56.5 c 128,-1,1
EndSplineSet
Substitution2: "'fwid' Full Widths lookup 32 subtable" uniFF54
Substitution2: "'smcp' Lowercase to Small Capitals lookup 27 subtable" t.sc
Substitution2: "'sinf' Scientific Inferiors lookup 14 subtable" uni209C
Substitution2: "'subs' Subscript lookup 13 subtable" uni209C
AlternateSubs2: "'aalt' Access All Alternates lookup 1 subtable" uni209C t.sc uniFF54
EndChar

StartChar: u
Encoding: 117 117 46
Width: 1200
GlyphClass: 2
Flags: W
AnchorPoint: "Anchor-37" 919 1102 basechar 0
AnchorPoint: "Anchor-36" 607 542 basechar 0
AnchorPoint: "Anchor-34" 597 1102 basechar 0
AnchorPoint: "Anchor-33" 947 0 basechar 0
AnchorPoint: "Anchor-32" 625 0 basechar 0
LayerCount: 2
Fore
SplineSet
309 32.5 m 128,-1,1
 234 81 234 81 193.5 172.5 c 128,-1,2
 153 264 153 264 153 392 c 2,3,-1
 153 1100 l 1,4,-1
 397 1100 l 1,5,-1
 397 422 l 2,6,7
 397 342 397 342 410.5 288 c 128,-1,8
 424 234 424 234 463 203 c 128,-1,9
 502 172 502 172 575 172 c 0,10,11
 686 172 686 172 740.5 251 c 128,-1,12
 795 330 795 330 795 454 c 2,13,-1
 795 1100 l 1,14,-1
 1039 1100 l 1,15,-1
 1039 238 l 2,16,17
 1039 175 1039 175 1043 87 c 0,18,19
 1045 57 1045 57 1047 0 c 1,20,-1
 805 0 l 1,21,-1
 797 118 l 1,22,23
 740 41 740 41 671 12.5 c 128,-1,24
 602 -16 602 -16 487 -16 c 0,25,0
 384 -16 384 -16 309 32.5 c 128,-1,1
EndSplineSet
Substitution2: "'fwid' Full Widths lookup 32 subtable" uniFF55
Substitution2: "'smcp' Lowercase to Small Capitals lookup 27 subtable" u.sc
AlternateSubs2: "'aalt' Access All Alternates lookup 1 subtable" u.sc uniFF55
EndChar

StartChar: v
Encoding: 118 118 47
Width: 1200
GlyphClass: 2
Flags: W
AnchorPoint: "Anchor-36" 600 552 basechar 0
AnchorPoint: "Anchor-34" 628 1110 basechar 0
AnchorPoint: "Anchor-32" 628 0 basechar 0
LayerCount: 2
Fore
SplineSet
128 1106 m 1,0,-1
 394 1106 l 1,1,-1
 604 316 l 1,2,-1
 820 1106 l 1,3,-1
 1072 1106 l 1,4,-1
 742 0 l 1,5,-1
 460 0 l 1,6,-1
 128 1106 l 1,0,-1
EndSplineSet
Substitution2: "'fwid' Full Widths lookup 32 subtable" uniFF56
Substitution2: "'smcp' Lowercase to Small Capitals lookup 27 subtable" v.sc
AlternateSubs2: "'aalt' Access All Alternates lookup 1 subtable" v.sc uniFF56
EndChar

StartChar: w
Encoding: 119 119 48
Width: 1200
GlyphClass: 2
Flags: W
AnchorPoint: "Anchor-36" 599 552 basechar 0
AnchorPoint: "Anchor-34" 599 1104 basechar 0
AnchorPoint: "Anchor-32" 599 0 basechar 0
LayerCount: 2
Fore
SplineSet
67 1100 m 1,0,-1
 317 1100 l 1,1,-1
 407 300 l 1,2,-1
 418 322 l 1,3,-1
 523 936 l 1,4,-1
 675 936 l 1,5,-1
 783 322 l 1,6,-1
 793 300 l 1,7,-1
 905 1100 l 1,8,-1
 1133 1100 l 1,9,-1
 941 0 l 1,10,-1
 715 0 l 1,11,-1
 600 532 l 1,12,-1
 479 0 l 1,13,-1
 251 0 l 1,14,-1
 67 1100 l 1,0,-1
EndSplineSet
Substitution2: "'fwid' Full Widths lookup 32 subtable" uniFF57
Substitution2: "'smcp' Lowercase to Small Capitals lookup 27 subtable" w.sc
AlternateSubs2: "'aalt' Access All Alternates lookup 1 subtable" w.sc uniFF57
EndChar

StartChar: x
Encoding: 120 120 49
Width: 1200
GlyphClass: 2
Flags: W
AnchorPoint: "Anchor-36" 600 550 basechar 0
AnchorPoint: "Anchor-34" 602 1104 basechar 0
AnchorPoint: "Anchor-32" 600 0 basechar 0
LayerCount: 2
Fore
SplineSet
446 556 m 1,0,-1
 150 1102 l 1,1,-1
 422 1102 l 1,2,-1
 600 742 l 1,3,-1
 792 1102 l 1,4,-1
 1048 1102 l 1,5,-1
 738 562 l 1,6,-1
 1070 0 l 1,7,-1
 790 0 l 1,8,-1
 600 398 l 1,9,-1
 394 0 l 1,10,-1
 130 0 l 1,11,-1
 446 556 l 1,0,-1
EndSplineSet
Substitution2: "'fwid' Full Widths lookup 32 subtable" uniFF58
Substitution2: "'smcp' Lowercase to Small Capitals lookup 27 subtable" x.sc
Substitution2: "'sinf' Scientific Inferiors lookup 14 subtable" uni2093
Substitution2: "'subs' Subscript lookup 13 subtable" uni2093
AlternateSubs2: "'aalt' Access All Alternates lookup 1 subtable" uni2093 x.sc uniFF58
EndChar

StartChar: y
Encoding: 121 121 50
Width: 1200
GlyphClass: 2
Flags: W
AnchorPoint: "Anchor-36" 597 352 basechar 0
AnchorPoint: "Anchor-34" 585 1100 basechar 0
AnchorPoint: "Anchor-32" 611 -342 basechar 0
LayerCount: 2
Fore
SplineSet
231 -184 m 128,-1,1
 287 -190 287 -190 327 -190 c 0,2,3
 376 -190 376 -190 414 -163 c 128,-1,4
 452 -136 452 -136 471.5 -93.5 c 128,-1,5
 491 -51 491 -51 489 -4 c 0,6,7
 488 39 488 39 450.5 161.5 c 128,-1,8
 413 284 413 284 369 406 c 0,9,10
 343 476 343 476 288.5 632.5 c 128,-1,11
 234 789 234 789 216 842 c 0,12,13
 162 1001 162 1001 127 1100 c 1,14,-1
 383 1100 l 1,15,-1
 611 332 l 1,16,-1
 831 1100 l 1,17,-1
 1073 1100 l 1,18,19
 1053 1038 1053 1038 1026 952.5 c 128,-1,20
 999 867 999 867 986 825 c 0,21,22
 908 580 908 580 893 534 c 0,23,24
 865 449 865 449 812 267 c 0,25,26
 801 229 801 229 762 99 c 128,-1,27
 723 -31 723 -31 707 -74 c 0,28,29
 655 -219 655 -219 585.5 -290 c 128,-1,30
 516 -361 516 -361 458.5 -377.5 c 128,-1,31
 401 -394 401 -394 345 -394 c 0,32,33
 303 -394 303 -394 235 -389 c 128,-1,34
 167 -384 167 -384 127 -376 c 1,35,-1
 127 -166 l 1,36,0
 175 -178 175 -178 231 -184 c 128,-1,1
EndSplineSet
Substitution2: "'fwid' Full Widths lookup 32 subtable" uniFF59
Substitution2: "'smcp' Lowercase to Small Capitals lookup 27 subtable" y.sc
AlternateSubs2: "'aalt' Access All Alternates lookup 1 subtable" y.sc uniFF59
EndChar

StartChar: z
Encoding: 122 122 51
Width: 1200
GlyphClass: 2
Flags: W
AnchorPoint: "Anchor-36" 599 550 basechar 0
AnchorPoint: "Anchor-34" 601 1100 basechar 0
AnchorPoint: "Anchor-32" 601 0 basechar 0
LayerCount: 2
Fore
SplineSet
161 206 m 1,0,-1
 715 896 l 1,1,-1
 161 896 l 1,2,-1
 161 1100 l 1,3,-1
 1019 1100 l 1,4,-1
 1019 914 l 1,5,-1
 447 204 l 1,6,-1
 1039 204 l 1,7,-1
 1039 0 l 1,8,-1
 161 0 l 1,9,-1
 161 206 l 1,0,-1
EndSplineSet
Substitution2: "'fwid' Full Widths lookup 32 subtable" uniFF5A
Substitution2: "'smcp' Lowercase to Small Capitals lookup 27 subtable" z.sc
AlternateSubs2: "'aalt' Access All Alternates lookup 1 subtable" z.sc uniFF5A
EndChar

StartChar: Alpha
Encoding: 913 913 52
Width: 1200
GlyphClass: 2
Flags: W
AnchorPoint: "Anchor-23" 282 1450 basechar 0
AnchorPoint: "Anchor-22" 600 1454 basechar 0
AnchorPoint: "Anchor-21" 994 0 basechar 0
AnchorPoint: "Anchor-20" 1120 0 basechar 0
AnchorPoint: "Anchor-19" 600 0 basechar 0
LayerCount: 2
Fore
SplineSet
426 1450 m 1,0,-1
 778 1450 l 1,1,-1
 1120 0 l 1,2,-1
 864 0 l 1,3,-1
 780 342 l 1,4,-1
 398 342 l 1,5,-1
 318 0 l 1,6,-1
 82 0 l 1,7,-1
 426 1450 l 1,0,-1
746 550 m 1,8,-1
 612 1204 l 1,9,-1
 588 1204 l 1,10,-1
 456 550 l 1,11,-1
 746 550 l 1,8,-1
EndSplineSet
EndChar

StartChar: Beta
Encoding: 914 914 53
Width: 1200
GlyphClass: 2
Flags: W
AnchorPoint: "Anchor-22" 600 1500 basechar 0
AnchorPoint: "Anchor-19" 600 0 basechar 0
LayerCount: 2
Fore
SplineSet
118 1450 m 1,0,-1
 518 1450 l 2,1,2
 727 1450 727 1450 848.5 1355.5 c 128,-1,3
 970 1261 970 1261 970 1072 c 0,4,5
 970 939 970 939 924.5 870 c 128,-1,6
 879 801 879 801 786 764 c 1,7,8
 918 743 918 743 1004 656.5 c 128,-1,9
 1090 570 1090 570 1090 396 c 0,10,11
 1090 185 1090 185 945 92.5 c 128,-1,12
 800 0 800 0 574 0 c 2,13,-1
 118 0 l 1,14,-1
 118 1450 l 1,0,-1
488 838 m 2,15,16
 598 838 598 838 658 884.5 c 128,-1,17
 718 931 718 931 718 1046 c 0,18,19
 718 1148 718 1148 662.5 1196 c 128,-1,20
 607 1244 607 1244 512 1244 c 2,21,-1
 370 1244 l 1,22,-1
 370 838 l 1,23,-1
 488 838 l 2,15,16
544 200 m 2,24,25
 620 200 620 200 677.5 215 c 128,-1,26
 735 230 735 230 774.5 277.5 c 128,-1,27
 814 325 814 325 814 416 c 0,28,29
 814 542 814 542 744 592 c 128,-1,30
 674 642 674 642 566 642 c 2,31,-1
 372 642 l 1,32,-1
 372 200 l 1,33,-1
 544 200 l 2,24,25
EndSplineSet
EndChar

StartChar: Gamma
Encoding: 915 915 54
Width: 1200
GlyphClass: 2
Flags: W
AnchorPoint: "Anchor-22" 600 1450 basechar 0
AnchorPoint: "Anchor-19" 600 0 basechar 0
LayerCount: 2
Fore
SplineSet
124 1450 m 1,0,-1
 1076 1450 l 1,1,-1
 1076 1230 l 1,2,-1
 360 1230 l 1,3,-1
 360 0 l 1,4,-1
 124 0 l 1,5,-1
 124 1450 l 1,0,-1
EndSplineSet
EndChar

StartChar: uni0394
Encoding: 916 916 55
Width: 1200
GlyphClass: 2
Flags: W
AnchorPoint: "Anchor-22" 600 1500 basechar 0
AnchorPoint: "Anchor-19" 600 0 basechar 0
LayerCount: 2
Fore
SplineSet
566 1492 m 1,0,-1
 628 1492 l 1,1,-1
 1150 0 l 1,2,-1
 50 0 l 1,3,-1
 566 1492 l 1,0,-1
864 174 m 1,4,-1
 596 1024 l 1,5,-1
 336 174 l 1,6,-1
 864 174 l 1,4,-1
EndSplineSet
EndChar

StartChar: Epsilon
Encoding: 917 917 56
Width: 1200
GlyphClass: 2
Flags: W
AnchorPoint: "Anchor-23" 142 1450 basechar 0
AnchorPoint: "Anchor-22" 600 1500 basechar 0
AnchorPoint: "Anchor-21" 932 0 basechar 0
AnchorPoint: "Anchor-19" 600 0 basechar 0
LayerCount: 2
Fore
SplineSet
136 1450 m 1,0,-1
 1046 1450 l 1,1,-1
 1046 1230 l 1,2,-1
 396 1230 l 1,3,-1
 396 860 l 1,4,-1
 1014 860 l 1,5,-1
 1014 640 l 1,6,-1
 396 640 l 1,7,-1
 396 218 l 1,8,-1
 1074 218 l 1,9,-1
 1074 0 l 1,10,-1
 136 0 l 1,11,-1
 136 1450 l 1,0,-1
EndSplineSet
EndChar

StartChar: Zeta
Encoding: 918 918 57
Width: 1200
GlyphClass: 2
Flags: W
AnchorPoint: "Anchor-24" 594 714 basechar 0
AnchorPoint: "Anchor-22" 594 1426 basechar 0
AnchorPoint: "Anchor-19" 594 0 basechar 0
LayerCount: 2
Fore
SplineSet
1070 1450 m 1,0,-1
 1070 1228 l 1,1,-1
 386 214 l 1,2,-1
 1100 212 l 1,3,-1
 1100 0 l 1,4,-1
 98 0 l 1,5,-1
 96 242 l 1,6,-1
 780 1232 l 1,7,-1
 366 1232 l 1,8,-1
 366 1092 l 1,9,-1
 158 1092 l 1,10,-1
 158 1450 l 1,11,-1
 1070 1450 l 1,0,-1
EndSplineSet
EndChar

StartChar: Eta
Encoding: 919 919 58
Width: 1200
GlyphClass: 2
Flags: W
AnchorPoint: "Anchor-24" 600 726 basechar 0
AnchorPoint: "Anchor-23" 90 1450 basechar 0
AnchorPoint: "Anchor-22" 600 1500 basechar 0
AnchorPoint: "Anchor-20" 1054 0 basechar 0
AnchorPoint: "Anchor-19" 600 0 basechar 0
LayerCount: 2
Fore
SplineSet
148 1450 m 1,0,-1
 404 1450 l 1,1,-1
 404 870 l 1,2,-1
 798 870 l 1,3,-1
 798 1450 l 1,4,-1
 1054 1450 l 1,5,-1
 1054 0 l 1,6,-1
 798 0 l 1,7,-1
 798 644 l 1,8,-1
 404 644 l 1,9,-1
 404 0 l 1,10,-1
 148 0 l 1,11,-1
 148 1450 l 1,0,-1
EndSplineSet
EndChar

StartChar: Theta
Encoding: 920 920 59
Width: 1200
GlyphClass: 2
Flags: W
AnchorPoint: "Anchor-25" 1111 1450 basechar 0
AnchorPoint: "Anchor-24" 600 726 basechar 0
AnchorPoint: "Anchor-23" 89 1450 basechar 0
AnchorPoint: "Anchor-22" 600 1450 basechar 0
AnchorPoint: "Anchor-21" 979 20 basechar 0
AnchorPoint: "Anchor-19" 600 0 basechar 0
LayerCount: 2
Fore
SplineSet
593 806 m 0,1,2
 692 806 692 806 804 832 c 1,3,-1
 804 578 l 1,4,5
 710 600 710 600 612 600 c 0,6,7
 510 600 510 600 400 578 c 1,8,-1
 400 832 l 1,9,0
 490 806 490 806 593 806 c 0,1,2
110.5 1094.5 m 128,-1,11
 184 1264 184 1264 312 1361 c 128,-1,12
 440 1458 440 1458 598 1458 c 0,13,14
 757 1458 757 1458 886 1361 c 128,-1,15
 1015 1264 1015 1264 1089 1094.5 c 128,-1,16
 1163 925 1163 925 1163 716 c 0,17,18
 1163 509 1163 509 1088.5 341 c 128,-1,19
 1014 173 1014 173 884 76.5 c 128,-1,20
 754 -20 754 -20 594 -20 c 0,21,22
 438 -20 438 -20 310.5 76.5 c 128,-1,23
 183 173 183 173 110 341 c 128,-1,24
 37 509 37 509 37 716 c 0,25,10
 37 925 37 925 110.5 1094.5 c 128,-1,11
304 390 m 128,-1,27
 327 267 327 267 395.5 197.5 c 128,-1,28
 464 128 464 128 596 128 c 0,29,30
 780 128 780 128 850.5 304.5 c 128,-1,31
 921 481 921 481 921 712 c 0,32,33
 921 965 921 965 846.5 1135.5 c 128,-1,34
 772 1306 772 1306 596 1306 c 256,35,36
 420 1306 420 1306 350.5 1142.5 c 128,-1,37
 281 979 281 979 281 712 c 0,38,26
 281 513 281 513 304 390 c 128,-1,27
EndSplineSet
EndChar

StartChar: Iota
Encoding: 921 921 60
Width: 1200
GlyphClass: 2
Flags: W
AnchorPoint: "Anchor-23" 388 1450 basechar 0
AnchorPoint: "Anchor-22" 598 1450 basechar 0
AnchorPoint: "Anchor-21" 840 0 basechar 0
AnchorPoint: "Anchor-19" 598 0 basechar 0
LayerCount: 2
Fore
SplineSet
320 168 m 1,0,-1
 472 168 l 1,1,-1
 472 1268 l 1,2,-1
 320 1268 l 1,3,-1
 320 1450 l 1,4,-1
 882 1450 l 1,5,-1
 882 1268 l 1,6,-1
 730 1268 l 1,7,-1
 730 168 l 1,8,-1
 882 168 l 1,9,-1
 882 0 l 1,10,-1
 320 0 l 1,11,-1
 320 168 l 1,0,-1
EndSplineSet
EndChar

StartChar: Kappa
Encoding: 922 922 61
Width: 1200
GlyphClass: 2
Flags: W
AnchorPoint: "Anchor-22" 600 1500 basechar 0
AnchorPoint: "Anchor-19" 600 0 basechar 0
LayerCount: 2
Fore
SplineSet
434 735 m 1,0,-1
 434 0 l 1,1,-1
 182 0 l 1,2,-1
 182 1452 l 1,3,-1
 434 1452 l 1,4,-1
 434 843 l 1,5,-1
 842 1452 l 1,6,-1
 1122 1452 l 1,7,-1
 678 798 l 1,8,-1
 1172 0 l 1,9,-1
 872 0 l 1,10,-1
 434 735 l 1,0,-1
EndSplineSet
EndChar

StartChar: Lambda
Encoding: 923 923 62
Width: 1200
GlyphClass: 2
Flags: W
AnchorPoint: "Anchor-22" 600 1450 basechar 0
AnchorPoint: "Anchor-19" 600 0 basechar 0
LayerCount: 2
Fore
SplineSet
596 1064 m 1,0,-1
 278 0 l 1,1,-1
 56 0 l 1,2,-1
 506 1450 l 1,3,-1
 684 1450 l 1,4,-1
 1148 0 l 1,5,-1
 924 0 l 1,6,-1
 596 1064 l 1,0,-1
EndSplineSet
EndChar

StartChar: Mu
Encoding: 924 924 63
Width: 1200
GlyphClass: 2
Flags: W
AnchorPoint: "Anchor-22" 600 1500 basechar 0
AnchorPoint: "Anchor-20" 1082 0 basechar 0
AnchorPoint: "Anchor-19" 600 0 basechar 0
LayerCount: 2
Fore
SplineSet
118 1450 m 1,0,-1
 442 1450 l 1,1,-1
 599 860 l 1,2,-1
 758 1450 l 1,3,-1
 1082 1450 l 1,4,-1
 1082 0 l 1,5,-1
 838 0 l 1,6,-1
 838 1003 l 1,7,-1
 829 984 l 1,8,-1
 827 973 l 1,9,-1
 660 389 l 1,10,-1
 540 389 l 1,11,-1
 375 973 l 1,12,-1
 372 984 l 1,13,-1
 360 1003 l 1,14,-1
 360 0 l 1,15,-1
 118 0 l 1,16,-1
 118 1450 l 1,0,-1
EndSplineSet
EndChar

StartChar: Nu
Encoding: 925 925 64
Width: 1200
GlyphClass: 2
Flags: W
AnchorPoint: "Anchor-22" 600 1500 basechar 0
AnchorPoint: "Anchor-19" 600 0 basechar 0
LayerCount: 2
Fore
SplineSet
140 1450 m 1,0,-1
 464 1450 l 1,1,-1
 748 618 l 1,2,-1
 806 442 l 1,3,-1
 806 1450 l 1,4,-1
 1056 1450 l 1,5,-1
 1056 0 l 1,6,-1
 752 0 l 1,7,-1
 388 990 l 1,8,-1
 388 0 l 1,9,-1
 140 0 l 1,10,-1
 140 1450 l 1,0,-1
EndSplineSet
EndChar

StartChar: Xi
Encoding: 926 926 65
Width: 1200
GlyphClass: 2
Flags: W
AnchorPoint: "Anchor-22" 600 1500 basechar 0
AnchorPoint: "Anchor-19" 600 0 basechar 0
LayerCount: 2
Fore
SplineSet
78 1450 m 1,0,-1
 1126 1450 l 1,1,-1
 1126 1254 l 1,2,-1
 78 1254 l 1,3,-1
 78 1450 l 1,0,-1
78 196 m 1,4,-1
 1126 196 l 1,5,-1
 1126 0 l 1,6,-1
 78 0 l 1,7,-1
 78 196 l 1,4,-1
202 860 m 1,8,-1
 1002 860 l 1,9,-1
 1002 662 l 1,10,-1
 202 662 l 1,11,-1
 202 860 l 1,8,-1
EndSplineSet
EndChar

StartChar: Omicron
Encoding: 927 927 66
Width: 1200
GlyphClass: 2
Flags: W
AnchorPoint: "Anchor-25" 1072 1450 basechar 0
AnchorPoint: "Anchor-24" 600 724 basechar 0
AnchorPoint: "Anchor-23" 170 1450 basechar 0
AnchorPoint: "Anchor-22" 606 1450 basechar 0
AnchorPoint: "Anchor-21" 1046 20 basechar 0
AnchorPoint: "Anchor-19" 606 0 basechar 0
LayerCount: 2
Fore
SplineSet
322 70 m 128,-1,1
 209 160 209 160 153.5 325.5 c 128,-1,2
 98 491 98 491 98 720 c 0,3,4
 98 966 98 966 160.5 1132 c 128,-1,5
 223 1298 223 1298 337 1380 c 128,-1,6
 451 1462 451 1462 606 1462 c 256,7,8
 761 1462 761 1462 872 1380 c 128,-1,9
 983 1298 983 1298 1042.5 1132.5 c 128,-1,10
 1102 967 1102 967 1102 720 c 0,11,12
 1102 371 1102 371 979 175.5 c 128,-1,13
 856 -20 856 -20 604 -20 c 0,14,0
 435 -20 435 -20 322 70 c 128,-1,1
407 349 m 128,-1,16
 468 200 468 200 600 200 c 0,17,18
 688 200 688 200 745 272 c 128,-1,19
 802 344 802 344 828 461.5 c 128,-1,20
 854 579 854 579 854 720 c 0,21,22
 854 857 854 857 829.5 974.5 c 128,-1,23
 805 1092 805 1092 748 1167 c 128,-1,24
 691 1242 691 1242 600 1242 c 0,25,26
 512 1242 512 1242 455 1167.5 c 128,-1,27
 398 1093 398 1093 372 974.5 c 128,-1,28
 346 856 346 856 346 720 c 0,29,15
 346 498 346 498 407 349 c 128,-1,16
EndSplineSet
EndChar

StartChar: Pi
Encoding: 928 928 67
Width: 1200
GlyphClass: 2
Flags: W
AnchorPoint: "Anchor-22" 600 1500 basechar 0
AnchorPoint: "Anchor-19" 600 0 basechar 0
LayerCount: 2
Fore
SplineSet
96 1450 m 1,0,-1
 1104 1450 l 1,1,-1
 1104 0 l 1,2,-1
 860 0 l 1,3,-1
 860 1230 l 1,4,-1
 342 1230 l 1,5,-1
 342 0 l 1,6,-1
 96 0 l 1,7,-1
 96 1450 l 1,0,-1
EndSplineSet
EndChar

StartChar: Rho
Encoding: 929 929 68
Width: 1200
GlyphClass: 2
Flags: W
AnchorPoint: "Anchor-23" 136 1450 basechar 0
AnchorPoint: "Anchor-22" 600 1500 basechar 0
AnchorPoint: "Anchor-19" 600 0 basechar 0
LayerCount: 2
Fore
SplineSet
214 1450 m 1,0,-1
 554 1450 l 2,1,2
 776 1450 776 1450 901 1356 c 128,-1,3
 1026 1262 1026 1262 1026 1030 c 0,4,5
 1026 801 1026 801 897.5 697.5 c 128,-1,6
 769 594 769 594 562 594 c 2,7,-1
 466 594 l 1,8,-1
 466 0 l 1,9,-1
 214 0 l 1,10,-1
 214 1450 l 1,0,-1
518 806 m 2,11,12
 600 806 600 806 652 819 c 128,-1,13
 704 832 704 832 738 881.5 c 128,-1,14
 772 931 772 931 772 1032 c 0,15,16
 772 1156 772 1156 708 1201 c 128,-1,17
 644 1246 644 1246 532 1246 c 2,18,-1
 466 1246 l 1,19,-1
 466 806 l 1,20,-1
 518 806 l 2,11,12
EndSplineSet
EndChar

StartChar: Sigma
Encoding: 931 931 69
Width: 1200
GlyphClass: 2
Flags: W
AnchorPoint: "Anchor-22" 600 1500 basechar 0
AnchorPoint: "Anchor-19" 600 0 basechar 0
LayerCount: 2
Fore
SplineSet
84 148 m 1,0,-1
 476 740 l 1,1,-1
 84 1302 l 1,2,-1
 84 1450 l 1,3,-1
 1116 1450 l 1,4,-1
 1116 1258 l 1,5,-1
 364 1258 l 1,6,-1
 732 736 l 1,7,-1
 364 194 l 1,8,-1
 1116 194 l 1,9,-1
 1116 0 l 1,10,-1
 84 0 l 1,11,-1
 84 148 l 1,0,-1
EndSplineSet
EndChar

StartChar: Tau
Encoding: 932 932 70
Width: 1200
GlyphClass: 2
Flags: W
AnchorPoint: "Anchor-24" 600 700 basechar 0
AnchorPoint: "Anchor-23" 84 1450 basechar 0
AnchorPoint: "Anchor-22" 600 1500 basechar 0
AnchorPoint: "Anchor-19" 600 0 basechar 0
LayerCount: 2
Fore
SplineSet
472 1222 m 1,0,-1
 84 1222 l 1,1,-1
 84 1450 l 1,2,-1
 1116 1450 l 1,3,-1
 1116 1222 l 1,4,-1
 730 1222 l 1,5,-1
 730 0 l 1,6,-1
 472 0 l 1,7,-1
 472 1222 l 1,0,-1
EndSplineSet
EndChar

StartChar: Upsilon
Encoding: 933 933 71
Width: 1200
GlyphClass: 2
Flags: W
AnchorPoint: "Anchor-23" 54 1406 basechar 0
AnchorPoint: "Anchor-22" 600 1454 basechar 0
AnchorPoint: "Anchor-19" 600 0 basechar 0
LayerCount: 2
Fore
SplineSet
486 608 m 1,0,-1
 50 1454 l 1,1,-1
 330 1454 l 1,2,-1
 598 864 l 1,3,-1
 872 1454 l 1,4,-1
 1150 1454 l 1,5,-1
 718 608 l 1,6,-1
 718 0 l 1,7,-1
 486 0 l 1,8,-1
 486 608 l 1,0,-1
EndSplineSet
EndChar

StartChar: Phi
Encoding: 934 934 72
Width: 1200
GlyphClass: 2
Flags: W
AnchorPoint: "Anchor-25" 1112 1450 basechar 0
AnchorPoint: "Anchor-24" 600 612 basechar 0
AnchorPoint: "Anchor-23" 110 1454 basechar 0
AnchorPoint: "Anchor-22" 600 1450 basechar 0
AnchorPoint: "Anchor-21" 1062 0 basechar 0
AnchorPoint: "Anchor-19" 600 0 basechar 0
LayerCount: 2
Fore
SplineSet
940 1294 m 1,0,-1
 722 1294 l 1,1,-1
 722 1218 l 1,2,3
 867 1203 867 1203 953.5 1147 c 128,-1,4
 1040 1091 1040 1091 1079 985.5 c 128,-1,5
 1118 880 1118 880 1118 712 c 0,6,7
 1118 554 1118 554 1079 455 c 128,-1,8
 1040 356 1040 356 953.5 303.5 c 128,-1,9
 867 251 867 251 722 237 c 1,10,-1
 722 154 l 1,11,-1
 940 154 l 1,12,-1
 940 0 l 1,13,-1
 288 0 l 1,14,-1
 288 154 l 1,15,-1
 484 154 l 1,16,-1
 484 236 l 1,17,18
 338 249 338 249 250.5 301 c 128,-1,19
 163 353 163 353 123.5 452.5 c 128,-1,20
 84 552 84 552 84 712 c 0,21,22
 84 882 84 882 123.5 988 c 128,-1,23
 163 1094 163 1094 250.5 1149.5 c 128,-1,24
 338 1205 338 1205 484 1219 c 1,25,-1
 484 1294 l 1,26,-1
 288 1294 l 1,27,-1
 288 1450 l 1,28,-1
 940 1450 l 1,29,-1
 940 1294 l 1,0,-1
341.5 548.5 m 128,-1,31
 355 485 355 485 392 447.5 c 128,-1,32
 429 410 429 410 500 397 c 1,33,-1
 500 1066 l 1,34,35
 430 1050 430 1050 392.5 1005.5 c 128,-1,36
 355 961 355 961 341.5 892 c 128,-1,37
 328 823 328 823 328 718 c 0,38,30
 328 612 328 612 341.5 548.5 c 128,-1,31
840 509.5 m 128,-1,40
 876 588 876 588 876 718 c 0,41,42
 876 866 876 866 840.5 950 c 128,-1,43
 805 1034 805 1034 708 1062 c 1,44,-1
 708 404 l 1,45,39
 804 431 804 431 840 509.5 c 128,-1,40
EndSplineSet
EndChar

StartChar: Chi
Encoding: 935 935 73
Width: 1200
GlyphClass: 2
Flags: W
AnchorPoint: "Anchor-22" 600 1450 basechar 0
AnchorPoint: "Anchor-20" 988 -70 basechar 0
AnchorPoint: "Anchor-19" 600 0 basechar 0
LayerCount: 2
Fore
SplineSet
388 1450 m 1,0,-1
 592 980 l 1,1,-1
 808 1450 l 1,2,-1
 1068 1450 l 1,3,-1
 766 770 l 1,4,-1
 1106 0 l 1,5,-1
 832 0 l 1,6,-1
 598 546 l 1,7,-1
 366 0 l 1,8,-1
 96 0 l 1,9,-1
 426 758 l 1,10,-1
 200 1263 l 1,11,-1
 49 1263 l 1,12,-1
 49 1450 l 1,13,-1
 388 1450 l 1,0,-1
EndSplineSet
EndChar

StartChar: Psi
Encoding: 936 936 74
Width: 1200
GlyphClass: 2
Flags: W
AnchorPoint: "Anchor-22" 600 1476 basechar 0
AnchorPoint: "Anchor-19" 600 0 basechar 0
LayerCount: 2
Fore
SplineSet
490 423 m 1,0,1
 296 451 296 451 196 580.5 c 128,-1,2
 96 710 96 710 96 936 c 0,3,4
 96 967 96 967 98 1037 c 0,5,6
 100 1111 100 1111 100 1149 c 0,7,8
 100 1245 100 1245 90 1321 c 128,-1,9
 80 1397 80 1397 52 1454 c 1,10,-1
 262 1454 l 1,11,12
 284 1394 284 1394 292 1309 c 128,-1,13
 300 1224 300 1224 300 1119 c 2,14,-1
 299 1016 l 2,15,16
 298 987 298 987 298 936 c 0,17,18
 298 844 298 844 313.5 778 c 128,-1,19
 329 712 329 712 371 666.5 c 128,-1,20
 413 621 413 621 490 603 c 1,21,-1
 490 1450 l 1,22,-1
 714 1450 l 1,23,-1
 714 604 l 1,24,25
 792 622 792 622 833.5 667.5 c 128,-1,26
 875 713 875 713 889.5 777.5 c 128,-1,27
 904 842 904 842 904 936 c 0,28,29
 904 986 904 986 903 1014 c 2,30,-1
 902 1113 l 2,31,32
 902 1220 902 1220 911.5 1306.5 c 128,-1,33
 921 1393 921 1393 948 1454 c 1,34,-1
 1150 1454 l 1,35,36
 1116 1373 1116 1373 1106 1261.5 c 128,-1,37
 1096 1150 1096 1150 1096 998 c 2,38,-1
 1096 936 l 2,39,40
 1096 707 1096 707 1003 579 c 128,-1,41
 910 451 910 451 714 424 c 1,42,-1
 714 0 l 1,43,-1
 490 0 l 1,44,-1
 490 423 l 1,0,1
EndSplineSet
EndChar

StartChar: uni03A9
Encoding: 937 937 75
Width: 1200
GlyphClass: 2
Flags: W
AnchorPoint: "Anchor-23" 166 1450 basechar 0
AnchorPoint: "Anchor-22" 600 1500 basechar 0
AnchorPoint: "Anchor-20" 1060 0 basechar 0
AnchorPoint: "Anchor-19" 600 0 basechar 0
LayerCount: 2
Fore
SplineSet
138 200 m 1,0,-1
 356 200 l 1,1,-1
 356 228 l 1,2,3
 277 266 277 266 209.5 347.5 c 128,-1,4
 142 429 142 429 100 549.5 c 128,-1,5
 58 670 58 670 58 818 c 0,6,7
 58 1011 58 1011 126 1157.5 c 128,-1,8
 194 1304 194 1304 317 1384 c 128,-1,9
 440 1464 440 1464 600 1464 c 0,10,11
 771 1464 771 1464 894 1386 c 128,-1,12
 1017 1308 1017 1308 1081.5 1162.5 c 128,-1,13
 1146 1017 1146 1017 1146 818 c 0,14,15
 1146 665 1146 665 1103 545 c 128,-1,16
 1060 425 1060 425 992 346 c 128,-1,17
 924 267 924 267 846 230 c 1,18,-1
 846 200 l 1,19,-1
 1062 200 l 1,20,-1
 1062 0 l 1,21,-1
 660 0 l 1,22,-1
 660 276 l 1,23,24
 735 285 735 285 790.5 382 c 128,-1,25
 846 479 846 479 875 614.5 c 128,-1,26
 904 750 904 750 904 870 c 0,27,28
 904 980 904 980 870 1074.5 c 128,-1,29
 836 1169 836 1169 767 1226.5 c 128,-1,30
 698 1284 698 1284 598 1284 c 256,31,32
 498 1284 498 1284 429.5 1219 c 128,-1,33
 361 1154 361 1154 327.5 1050.5 c 128,-1,34
 294 947 294 947 294 830 c 0,35,36
 294 706 294 706 323 581.5 c 128,-1,37
 352 457 352 457 407.5 371 c 128,-1,38
 463 285 463 285 540 276 c 1,39,-1
 540 0 l 1,40,-1
 138 0 l 1,41,-1
 138 200 l 1,0,-1
EndSplineSet
EndChar

StartChar: alpha
Encoding: 945 945 76
Width: 1200
GlyphClass: 2
Flags: W
AnchorPoint: "Anchor-24" 620 553 basechar 0
AnchorPoint: "Anchor-22" 600 1115 basechar 0
AnchorPoint: "Anchor-19" 600 -23 basechar 0
LayerCount: 2
Fore
SplineSet
229.5 59 m 128,-1,1
 148 131 148 131 102.5 259.5 c 128,-1,2
 57 388 57 388 57 550 c 0,3,4
 57 719 57 719 103.5 846.5 c 128,-1,5
 150 974 150 974 234 1043.5 c 128,-1,6
 318 1113 318 1113 428 1113 c 0,7,8
 623 1113 623 1113 701 887 c 0,9,10
 727 814 727 814 754 669 c 1,11,12
 786 778 786 778 813.5 900 c 128,-1,13
 841 1022 841 1022 851 1100 c 1,14,-1
 1037 1100 l 1,15,16
 1014 931 1014 931 960 748 c 128,-1,17
 906 565 906 565 845 425 c 2,18,-1
 814 356 l 1,19,20
 835 271 835 271 862 229 c 128,-1,21
 889 187 889 187 933 187 c 0,22,23
 994 187 994 187 1037 269 c 1,24,-1
 1142 170 l 1,25,26
 1103 96 1103 96 1049 42.5 c 128,-1,27
 995 -11 995 -11 914 -11 c 0,28,29
 849 -11 849 -11 796.5 35.5 c 128,-1,30
 744 82 744 82 705 170 c 1,31,32
 571 -13 571 -13 415 -13 c 0,33,0
 311 -13 311 -13 229.5 59 c 128,-1,1
284 363 m 128,-1,35
 308 282 308 282 348 236 c 128,-1,36
 388 190 388 190 434 190 c 0,37,38
 483 190 483 190 536 243.5 c 128,-1,39
 589 297 589 297 641 390 c 1,40,-1
 638 405 l 1,41,42
 589 686 589 686 565 764 c 0,43,44
 542 839 542 839 511 876 c 128,-1,45
 480 913 480 913 437 913 c 0,46,47
 389 913 389 913 348.5 869 c 128,-1,48
 308 825 308 825 284 741.5 c 128,-1,49
 260 658 260 658 260 545 c 0,50,34
 260 444 260 444 284 363 c 128,-1,35
EndSplineSet
EndChar

StartChar: beta
Encoding: 946 946 77
Width: 1200
GlyphClass: 2
Flags: W
AnchorPoint: "Anchor-22" 606 1466 basechar 0
LayerCount: 2
Fore
SplineSet
172 1102 m 128,-1,1
 215 1283 215 1283 314 1371.5 c 128,-1,2
 413 1460 413 1460 583 1460 c 0,3,4
 703 1460 703 1460 786.5 1417.5 c 128,-1,5
 870 1375 870 1375 911.5 1304.5 c 128,-1,6
 953 1234 953 1234 953 1152 c 0,7,8
 953 1039 953 1039 889.5 947 c 128,-1,9
 826 855 826 855 720 796 c 1,10,11
 822 777 822 777 901 726.5 c 128,-1,12
 980 676 980 676 1024.5 595 c 128,-1,13
 1069 514 1069 514 1069 409 c 0,14,15
 1069 293 1069 293 1011 194 c 128,-1,16
 953 95 953 95 846 35.5 c 128,-1,17
 739 -24 739 -24 599 -24 c 0,18,19
 444 -24 444 -24 327 45 c 1,20,21
 334 -176 334 -176 334 -338 c 1,22,-1
 129 -338 l 1,23,-1
 129 628 l 2,24,0
 129 921 129 921 172 1102 c 128,-1,1
339 333.5 m 128,-1,26
 367 228 367 228 423.5 189 c 128,-1,27
 480 150 480 150 577 150 c 0,28,29
 669 150 669 150 736 183 c 128,-1,30
 803 216 803 216 838 272 c 128,-1,31
 873 328 873 328 873 396 c 0,32,33
 873 489 873 489 823.5 553 c 128,-1,34
 774 617 774 617 695.5 647.5 c 128,-1,35
 617 678 617 678 532 678 c 0,36,37
 476 678 476 678 376 648 c 1,38,-1
 376 810 l 1,39,40
 484 819 484 819 573 857 c 128,-1,41
 662 895 662 895 714 957.5 c 128,-1,42
 766 1020 766 1020 766 1098 c 0,43,44
 766 1155 766 1155 739 1196 c 128,-1,45
 712 1237 712 1237 669 1257.5 c 128,-1,46
 626 1278 626 1278 578 1278 c 0,47,48
 473 1278 473 1278 414.5 1201 c 128,-1,49
 356 1124 356 1124 333.5 985.5 c 128,-1,50
 311 847 311 847 311 639 c 0,51,25
 311 439 311 439 339 333.5 c 128,-1,26
EndSplineSet
EndChar

StartChar: gamma
Encoding: 947 947 78
Width: 1200
GlyphClass: 2
Flags: W
AnchorPoint: "Anchor-22" 600 1100 basechar 0
AnchorPoint: "Anchor-19" 600 -316 basechar 0
LayerCount: 2
Fore
SplineSet
524 -125.5 m 128,-1,1
 518 -41 518 -41 516 59 c 0,2,3
 514 120 514 120 512 144 c 0,4,5
 508 175 508 175 465 290.5 c 128,-1,6
 422 406 422 406 369 534 c 128,-1,7
 316 662 316 662 294 708 c 0,8,9
 247 815 247 815 142 1100 c 1,10,-1
 364 1100 l 1,11,12
 380 1062 380 1062 415 965 c 0,13,14
 459 847 459 847 472 816 c 2,15,-1
 654 366 l 1,16,17
 700 429 700 429 730 488.5 c 128,-1,18
 760 548 760 548 790 628 c 0,19,20
 857 807 857 807 878 1100 c 1,21,-1
 1074 1100 l 1,22,23
 1074 958 1074 958 1041.5 801.5 c 128,-1,24
 1009 645 1009 645 964 540 c 0,25,26
 932 468 932 468 848 307 c 0,27,28
 818 250 818 250 792 198 c 128,-1,29
 766 146 766 146 758 124 c 0,30,31
 735 61 735 61 735 -35 c 0,32,33
 735 -157 735 -157 772 -318 c 1,34,-1
 550 -318 l 1,35,0
 530 -210 530 -210 524 -125.5 c 128,-1,1
EndSplineSet
EndChar

StartChar: delta
Encoding: 948 948 79
Width: 1200
GlyphClass: 2
Flags: W
AnchorPoint: "Anchor-22" 601 1475 basechar 0
AnchorPoint: "Anchor-19" 600 0 basechar 0
LayerCount: 2
Fore
SplineSet
351.5 52.5 m 128,-1,1
 235 119 235 119 166 231.5 c 128,-1,2
 97 344 97 344 97 475 c 0,3,4
 97 569 97 569 133 658 c 128,-1,5
 169 747 169 747 232.5 818.5 c 128,-1,6
 296 890 296 890 377 932 c 1,7,8
 297 975 297 975 253 1044.5 c 128,-1,9
 209 1114 209 1114 209 1192 c 0,10,11
 209 1263 209 1263 248 1325 c 128,-1,12
 287 1387 287 1387 377.5 1426.5 c 128,-1,13
 468 1466 468 1466 612 1466 c 0,14,15
 711 1466 711 1466 820 1446.5 c 128,-1,16
 929 1427 929 1427 1017 1386 c 1,17,18
 995 1332 995 1332 952 1249 c 2,19,-1
 930 1206 l 1,20,21
 826 1244 826 1244 751 1261 c 128,-1,22
 676 1278 676 1278 617 1278 c 0,23,24
 542 1278 542 1278 497 1254.5 c 128,-1,25
 452 1231 452 1231 452 1194 c 0,26,27
 452 1163 452 1163 488 1130.5 c 128,-1,28
 524 1098 524 1098 607 1053 c 0,29,30
 653 1028 653 1028 721 997 c 0,31,32
 808 956 808 956 858.5 927.5 c 128,-1,33
 909 899 909 899 952 858 c 0,34,35
 1018 796 1018 796 1058 705 c 128,-1,36
 1098 614 1098 614 1098 496 c 0,37,38
 1098 345 1098 345 1030 229 c 128,-1,39
 962 113 962 113 849 49.5 c 128,-1,40
 736 -14 736 -14 604 -14 c 0,41,0
 468 -14 468 -14 351.5 52.5 c 128,-1,1
362.5 320.5 m 128,-1,43
 398 250 398 250 461 212.5 c 128,-1,44
 524 175 524 175 603 175 c 0,45,46
 688 175 688 175 748 217 c 128,-1,47
 808 259 808 259 838 327 c 128,-1,48
 868 395 868 395 868 474 c 0,49,50
 868 582 868 582 809.5 681.5 c 128,-1,51
 751 781 751 781 621 834 c 1,52,53
 474 798 474 798 400.5 706.5 c 128,-1,54
 327 615 327 615 327 484 c 0,55,42
 327 391 327 391 362.5 320.5 c 128,-1,43
EndSplineSet
EndChar

StartChar: epsilon
Encoding: 949 949 80
Width: 1200
GlyphClass: 2
Flags: W
AnchorPoint: "Anchor-22" 600 1100 basechar 0
AnchorPoint: "Anchor-19" 600 -12 basechar 0
LayerCount: 2
Fore
SplineSet
436 8.5 m 128,-1,1
 362 31 362 31 293 78 c 0,2,3
 225 124 225 124 187.5 188 c 128,-1,4
 150 252 150 252 150 322 c 0,5,6
 150 412 150 412 203 481 c 128,-1,7
 256 550 256 550 357 594 c 1,8,9
 281 629 281 629 244 681 c 128,-1,10
 207 733 207 733 207 808 c 0,11,12
 207 874 207 874 238 930.5 c 128,-1,13
 269 987 269 987 326 1028 c 0,14,15
 429 1108 429 1108 604 1108 c 0,16,17
 666 1108 666 1108 709.5 1102.5 c 128,-1,18
 753 1097 753 1097 798 1082 c 0,19,20
 847 1065 847 1065 894 1039 c 128,-1,21
 941 1013 941 1013 999 970 c 1,22,-1
 872 840 l 1,23,24
 815 883 815 883 751 903.5 c 128,-1,25
 687 924 687 924 608 924 c 0,26,27
 516 924 516 924 469 892.5 c 128,-1,28
 422 861 422 861 422 792 c 0,29,30
 422 727 422 727 471.5 691.5 c 128,-1,31
 521 656 521 656 608 656 c 2,32,-1
 727 656 l 1,33,-1
 727 480 l 1,34,-1
 596 480 l 2,35,36
 502 480 502 480 442.5 436 c 128,-1,37
 383 392 383 392 383 318 c 0,38,39
 383 243 383 243 446.5 200.5 c 128,-1,40
 510 158 510 158 616 158 c 0,41,42
 712 158 712 158 785.5 186.5 c 128,-1,43
 859 215 859 215 915 274 c 1,44,-1
 1046 144 l 1,45,46
 897 -14 897 -14 604 -14 c 0,47,0
 510 -14 510 -14 436 8.5 c 128,-1,1
EndSplineSet
EndChar

StartChar: zeta
Encoding: 950 950 81
Width: 1200
GlyphClass: 2
Flags: W
AnchorPoint: "Anchor-22" 600 1454 basechar 0
AnchorPoint: "Anchor-19" 600 -374 basechar 0
LayerCount: 2
Fore
SplineSet
756 -190 m 0,1,2
 839 -190 839 -190 894.5 -157 c 128,-1,3
 950 -124 950 -124 950 -70 c 0,4,5
 950 -50 950 -50 940 -26.5 c 128,-1,6
 930 -3 930 -3 907 13.5 c 128,-1,7
 884 30 884 30 848 30 c 0,8,9
 825 30 825 30 799 25.5 c 128,-1,10
 773 21 773 21 730 11 c 0,11,12
 671 -2 671 -2 631 -8.5 c 128,-1,13
 591 -15 591 -15 548 -15 c 0,14,15
 404 -15 404 -15 301.5 69.5 c 128,-1,16
 199 154 199 154 147.5 287 c 128,-1,17
 96 420 96 420 96 563 c 0,18,19
 96 688 96 688 124.5 780.5 c 128,-1,20
 153 873 153 873 191.5 930 c 128,-1,21
 230 987 230 987 280 1041 c 0,22,23
 364 1130 364 1130 458 1187 c 1,24,25
 282 1207 282 1207 76 1260 c 1,26,-1
 134 1440 l 1,27,28
 214 1414 214 1414 337 1391 c 128,-1,29
 460 1368 460 1368 566 1368 c 0,30,31
 832 1368 832 1368 958 1386 c 1,32,33
 958 1365 958 1365 955 1281 c 0,34,35
 952 1242 952 1242 952 1195 c 1,36,37
 853 1190 853 1190 761.5 1163 c 128,-1,38
 670 1136 670 1136 599 1096.5 c 128,-1,39
 528 1057 528 1057 485 1015 c 0,40,41
 445 975 445 975 404 911 c 128,-1,42
 363 847 363 847 334.5 759 c 128,-1,43
 306 671 306 671 306 571 c 0,44,45
 306 437 306 437 342.5 347.5 c 128,-1,46
 379 258 379 258 440.5 215.5 c 128,-1,47
 502 173 502 173 578 173 c 0,48,49
 604 173 604 173 631.5 177.5 c 128,-1,50
 659 182 659 182 710 193 c 0,51,52
 768 206 768 206 811 213 c 128,-1,53
 854 220 854 220 898 220 c 0,54,55
 974 220 974 220 1031 181 c 128,-1,56
 1088 142 1088 142 1118 77.5 c 128,-1,57
 1148 13 1148 13 1148 -60 c 0,58,59
 1148 -146 1148 -146 1102 -217 c 128,-1,60
 1056 -288 1056 -288 974 -329 c 128,-1,61
 892 -370 892 -370 790 -370 c 0,62,63
 752 -370 752 -370 682.5 -363 c 128,-1,64
 613 -356 613 -356 570 -344 c 1,65,-1
 570 -154 l 1,66,0
 656 -190 656 -190 756 -190 c 0,1,2
EndSplineSet
EndChar

StartChar: eta
Encoding: 951 951 82
Width: 1200
GlyphClass: 2
Flags: W
AnchorPoint: "Anchor-22" 600 1120 basechar 0
LayerCount: 2
Fore
SplineSet
776.5 826.5 m 128,-1,1
 730 966 730 966 622 966 c 0,2,3
 542 966 542 966 482.5 910 c 128,-1,4
 423 854 423 854 391 760 c 128,-1,5
 359 666 359 666 359 554 c 2,6,-1
 359 0 l 1,7,-1
 141 0 l 1,8,-1
 141 302 l 1,9,-1
 141 526 l 1,10,-1
 141 1100 l 1,11,-1
 345 1100 l 1,12,-1
 367 980 l 1,13,14
 411 1044 411 1044 492 1083 c 128,-1,15
 573 1122 573 1122 664 1122 c 0,16,17
 788 1122 788 1122 877 1067 c 128,-1,18
 966 1012 966 1012 1011.5 920 c 128,-1,19
 1057 828 1057 828 1057 720 c 2,20,-1
 1057 -311 l 1,21,-1
 823 -311 l 1,22,-1
 823 412 l 2,23,0
 823 687 823 687 776.5 826.5 c 128,-1,1
EndSplineSet
EndChar

StartChar: theta
Encoding: 952 952 83
Width: 1200
GlyphClass: 2
Flags: W
AnchorPoint: "Anchor-22" 602 1470 basechar 0
AnchorPoint: "Anchor-19" 598 -42 basechar 0
LayerCount: 2
Fore
SplineSet
359.5 83.5 m 128,-1,1
 249 183 249 183 185.5 350 c 128,-1,2
 122 517 122 517 122 711 c 0,3,4
 122 899 122 899 182 1072 c 128,-1,5
 242 1245 242 1245 351.5 1352.5 c 128,-1,6
 461 1460 461 1460 600 1460 c 0,7,8
 740 1460 740 1460 849.5 1352.5 c 128,-1,9
 959 1245 959 1245 1019.5 1072 c 128,-1,10
 1080 899 1080 899 1080 709 c 0,11,12
 1080 517 1080 517 1018 350.5 c 128,-1,13
 956 184 956 184 847 84 c 128,-1,14
 738 -16 738 -16 604 -16 c 256,15,0
 470 -16 470 -16 359.5 83.5 c 128,-1,1
471 855 m 0,17,18
 509 855 509 855 541 843.5 c 128,-1,19
 573 832 573 832 618 809 c 0,20,21
 666 784 666 784 700 772 c 128,-1,22
 734 760 734 760 776 760 c 0,23,24
 823 760 823 760 874 778 c 1,25,26
 867 918 867 918 831.5 1030.5 c 128,-1,27
 796 1143 796 1143 736 1207.5 c 128,-1,28
 676 1272 676 1272 601 1272 c 0,29,30
 529 1272 529 1272 471 1212.5 c 128,-1,31
 413 1153 413 1153 376.5 1049 c 128,-1,32
 340 945 340 945 331 815 c 1,33,16
 408 855 408 855 471 855 c 0,17,18
383.5 398 m 128,-1,35
 422 299 422 299 479.5 243.5 c 128,-1,36
 537 188 537 188 605 188 c 0,37,38
 666 188 666 188 720.5 234 c 128,-1,39
 775 280 775 280 814 367.5 c 128,-1,40
 853 455 853 455 868 575 c 1,41,42
 833 567 833 567 797 567 c 0,43,44
 750 567 750 567 712 580.5 c 128,-1,45
 674 594 674 594 625 619 c 0,46,47
 578 642 578 642 546.5 653.5 c 128,-1,48
 515 665 515 665 477 665 c 0,49,50
 412 665 412 665 333 623 c 1,51,34
 345 497 345 497 383.5 398 c 128,-1,35
EndSplineSet
EndChar

StartChar: iota
Encoding: 953 953 84
Width: 1200
GlyphClass: 2
Flags: W
AnchorPoint: "Anchor-22" 600 1112 basechar 0
AnchorPoint: "Anchor-19" 600 -20 basechar 0
LayerCount: 2
Fore
SplineSet
538 97 m 128,-1,1
 484 178 484 178 484 326 c 2,2,-1
 484 920 l 1,3,-1
 202 920 l 1,4,-1
 202 1100 l 1,5,-1
 690 1100 l 1,6,-1
 690 374 l 2,7,8
 690 313 690 313 709 268.5 c 128,-1,9
 728 224 728 224 758.5 200 c 128,-1,10
 789 176 789 176 822 174 c 2,11,-1
 960 174 l 1,12,-1
 960 -18 l 1,13,-1
 871 -19 l 2,14,15
 762 -19 762 -19 692 -4 c 0,16,0
 592 16 592 16 538 97 c 128,-1,1
EndSplineSet
EndChar

StartChar: kappa
Encoding: 954 954 85
Width: 1200
GlyphClass: 2
Flags: W
AnchorPoint: "Anchor-19" 600 0 basechar 0
LayerCount: 2
Fore
SplineSet
652.5 28 m 128,-1,1
 600 67 600 67 570.5 126 c 128,-1,2
 541 185 541 185 532 248 c 0,3,4
 520 329 520 329 497 387.5 c 128,-1,5
 474 446 474 446 424 446 c 2,6,-1
 401 446 l 1,7,-1
 401 0 l 1,8,-1
 173 0 l 1,9,-1
 173 1100 l 1,10,-1
 401 1100 l 1,11,-1
 401 659 l 1,12,13
 529 700 529 700 583 848 c 0,14,15
 616 939 616 939 645 988.5 c 128,-1,16
 674 1038 674 1038 729.5 1069.5 c 128,-1,17
 785 1101 785 1101 880 1101 c 2,18,-1
 953 1101 l 1,19,-1
 953 901 l 1,20,-1
 921 901 l 2,21,22
 845 901 845 901 804.5 861 c 128,-1,23
 764 821 764 821 742 745 c 0,24,25
 729 700 729 700 685.5 646 c 128,-1,26
 642 592 642 592 576 555 c 1,27,28
 621 535 621 535 647 501.5 c 128,-1,29
 673 468 673 468 687 421 c 0,30,31
 694 399 694 399 698.5 370.5 c 128,-1,32
 703 342 703 342 704 334 c 0,33,34
 713 282 713 282 720 254 c 128,-1,35
 727 226 727 226 742 206.5 c 128,-1,36
 757 187 757 187 782 187 c 0,37,38
 820 187 820 187 838.5 244.5 c 128,-1,39
 857 302 857 302 867 408 c 1,40,-1
 1035 374 l 1,41,42
 1016 205 1016 205 955 97 c 128,-1,43
 894 -11 894 -11 779 -11 c 0,44,0
 705 -11 705 -11 652.5 28 c 128,-1,1
EndSplineSet
EndChar

StartChar: lambda
Encoding: 955 955 86
Width: 1200
GlyphClass: 2
Flags: W
AnchorPoint: "Anchor-22" 596 1506 basechar 0
AnchorPoint: "Anchor-19" 600 0 basechar 0
LayerCount: 2
Fore
SplineSet
341 394 m 0,1,2
 524 705 524 705 633 880 c 1,3,4
 603 1042 603 1042 566 1137.5 c 128,-1,5
 529 1233 529 1233 477.5 1276.5 c 128,-1,6
 426 1320 426 1320 352 1320 c 0,7,8
 274 1320 274 1320 227.5 1316 c 128,-1,9
 181 1312 181 1312 130 1296 c 1,10,-1
 118 1464 l 1,11,12
 186 1477 186 1477 225.5 1480.5 c 128,-1,13
 265 1484 265 1484 332 1486 c 0,14,15
 457 1489 457 1489 540 1458 c 128,-1,16
 623 1427 623 1427 681 1349.5 c 128,-1,17
 739 1272 739 1272 782 1134 c 0,18,19
 815 1027 815 1027 844.5 917 c 128,-1,20
 874 807 874 807 919 628 c 0,21,22
 965 444 965 444 1004 298 c 128,-1,23
 1043 152 1043 152 1090 0 c 1,24,-1
 866 0 l 1,25,26
 845 68 845 68 827 144 c 128,-1,27
 809 220 809 220 776 366 c 0,28,29
 768 400 768 400 748.5 486 c 128,-1,30
 729 572 729 572 713 631 c 1,31,-1
 640 513 l 2,32,33
 544 360 544 360 478.5 249 c 128,-1,34
 413 138 413 138 342 0 c 1,35,-1
 106 0 l 1,36,0
 153 78 153 78 341 394 c 0,1,2
EndSplineSet
EndChar

StartChar: uni03BC
Encoding: 956 956 87
Width: 1200
GlyphClass: 2
Flags: W
AnchorPoint: "Anchor-22" 600 1100 basechar 0
AnchorPoint: "Anchor-19" 600 -450 basechar 0
LayerCount: 2
Fore
SplineSet
160 445 m 0,1,2
 160 780 160 780 150 1100 c 1,3,-1
 364 1100 l 1,4,-1
 374 544 l 2,5,6
 377 368 377 368 428 267 c 128,-1,7
 479 166 479 166 598 166 c 0,8,9
 721 166 721 166 782 277 c 128,-1,10
 843 388 843 388 846 572 c 2,11,-1
 856 1100 l 1,12,-1
 1066 1100 l 1,13,14
 1059 955 1059 955 1052.5 726.5 c 128,-1,15
 1046 498 1046 498 1046 398 c 2,16,-1
 1046 22 l 1,17,-1
 854 22 l 1,18,-1
 854 146 l 1,19,20
 815 82 815 82 752.5 40 c 128,-1,21
 690 -2 690 -2 626 -2 c 0,22,23
 536 -2 536 -2 473.5 27 c 128,-1,24
 411 56 411 56 358 124 c 1,25,-1
 340 -452 l 1,26,-1
 136 -452 l 1,27,0
 160 -44 160 -44 160 445 c 0,1,2
EndSplineSet
EndChar

StartChar: nu
Encoding: 957 957 88
Width: 1200
GlyphClass: 2
Flags: W
AnchorPoint: "Anchor-22" 600 1108 basechar 0
AnchorPoint: "Anchor-19" 598 -34 basechar 0
LayerCount: 2
Fore
SplineSet
273 950 m 1,0,-1
 82 950 l 1,1,-1
 82 1100 l 1,2,-1
 484 1100 l 1,3,-1
 574 274 l 1,4,-1
 650 274 l 1,5,6
 729 376 729 376 775 451 c 128,-1,7
 821 526 821 526 853 637 c 128,-1,8
 885 748 885 748 885 900 c 0,9,10
 885 993 885 993 872 1100 c 1,11,-1
 1094 1100 l 1,12,13
 1101 1027 1101 1027 1101 950 c 0,14,15
 1101 722 1101 722 1036.5 537 c 128,-1,16
 972 352 972 352 862 218.5 c 128,-1,17
 752 85 752 85 612 0 c 1,18,-1
 408 0 l 1,19,-1
 273 950 l 1,0,-1
EndSplineSet
EndChar

StartChar: xi
Encoding: 958 958 89
Width: 1200
GlyphClass: 2
Flags: W
AnchorPoint: "Anchor-22" 600 1454 basechar 0
LayerCount: 2
Fore
SplineSet
725 -183 m 0,1,2
 805 -183 805 -183 847 -166 c 128,-1,3
 889 -149 889 -149 889 -108 c 0,4,5
 889 -79 889 -79 863 -61 c 128,-1,6
 837 -43 837 -43 783 -31 c 128,-1,7
 729 -19 729 -19 634 -8 c 0,8,9
 490 8 490 8 385.5 36.5 c 128,-1,10
 281 65 281 65 207 135.5 c 128,-1,11
 133 206 133 206 133 332 c 0,12,13
 133 420 133 420 164.5 497.5 c 128,-1,14
 196 575 196 575 253 632.5 c 128,-1,15
 310 690 310 690 386 720 c 1,16,17
 286 754 286 754 229.5 827 c 128,-1,18
 173 900 173 900 173 988 c 0,19,20
 173 1147 173 1147 284 1237 c 1,21,22
 214 1249 214 1249 125 1276 c 1,23,-1
 174 1434 l 1,24,25
 301 1388 301 1388 392 1374 c 128,-1,26
 483 1360 483 1360 590 1360 c 2,27,-1
 665 1360 l 2,28,29
 734 1360 734 1360 793 1364 c 128,-1,30
 852 1368 852 1368 938 1382 c 1,31,-1
 938 1236 l 1,32,33
 899 1236 899 1236 857.5 1231 c 128,-1,34
 816 1226 816 1226 753 1216 c 2,35,-1
 703 1208 l 1,36,-1
 667 1203 l 2,37,38
 600 1194 600 1194 558.5 1185.5 c 128,-1,39
 517 1177 517 1177 482 1160 c 0,40,41
 433 1136 433 1136 403 1094 c 128,-1,42
 373 1052 373 1052 373 996 c 0,43,44
 373 905 373 905 449.5 869.5 c 128,-1,45
 526 834 526 834 662 834 c 2,46,-1
 911 834 l 1,47,-1
 911 654 l 1,48,-1
 775 654 l 2,49,50
 654 654 654 654 552.5 611 c 128,-1,51
 451 568 451 568 392 497 c 128,-1,52
 333 426 333 426 333 346 c 0,53,54
 333 271 333 271 383 231 c 128,-1,55
 433 191 433 191 499.5 176.5 c 128,-1,56
 566 162 566 162 669 152 c 0,57,58
 830 136 830 136 959.5 78.5 c 128,-1,59
 1089 21 1089 21 1089 -108 c 0,60,61
 1089 -220 1089 -220 998 -270.5 c 128,-1,62
 907 -321 907 -321 738 -321 c 0,63,64
 672 -321 672 -321 586 -313 c 1,65,-1
 586 -176 l 1,66,0
 675 -183 675 -183 725 -183 c 0,1,2
EndSplineSet
EndChar

StartChar: omicron
Encoding: 959 959 90
Width: 1200
GlyphClass: 2
Flags: W
AnchorPoint: "Anchor-22" 600 1112 basechar 0
AnchorPoint: "Anchor-19" 598 -42 basechar 0
LayerCount: 2
Fore
SplineSet
345 63 m 128,-1,1
 223 132 223 132 151.5 258.5 c 128,-1,2
 80 385 80 385 80 551 c 0,3,4
 80 712 80 712 147 839 c 128,-1,5
 214 966 214 966 334 1038 c 128,-1,6
 454 1110 454 1110 606 1110 c 0,7,8
 754 1110 754 1110 871.5 1041 c 128,-1,9
 989 972 989 972 1055.5 846 c 128,-1,10
 1122 720 1122 720 1122 554 c 0,11,12
 1122 393 1122 393 1059.5 266 c 128,-1,13
 997 139 997 139 882 66.5 c 128,-1,14
 767 -6 767 -6 615 -6 c 0,15,0
 467 -6 467 -6 345 63 c 128,-1,1
392 241 m 128,-1,17
 466 136 466 136 603 136 c 0,18,19
 739 136 739 136 813.5 240.5 c 128,-1,20
 888 345 888 345 888 549 c 0,21,22
 888 755 888 755 812 863.5 c 128,-1,23
 736 972 736 972 600 972 c 256,24,25
 464 972 464 972 391 865 c 128,-1,26
 318 758 318 758 318 553 c 0,27,16
 318 346 318 346 392 241 c 128,-1,17
EndSplineSet
EndChar

StartChar: pi
Encoding: 960 960 91
Width: 1200
GlyphClass: 2
Flags: W
AnchorPoint: "Anchor-22" 600 1118 basechar 0
AnchorPoint: "Anchor-19" 598 -34 basechar 0
LayerCount: 2
Fore
SplineSet
844.5 5.5 m 128,-1,1
 794 33 794 33 761 83 c 128,-1,2
 728 133 728 133 720 198 c 0,3,4
 716 235 716 235 716 403 c 0,5,6
 716 690 716 690 724 930 c 1,7,-1
 484 930 l 1,8,9
 434 397 434 397 422 0 c 1,10,-1
 168 0 l 1,11,12
 218 220 218 220 240 441 c 128,-1,13
 262 662 262 662 262 930 c 1,14,-1
 70 930 l 1,15,-1
 70 1100 l 1,16,-1
 1138 1100 l 1,17,-1
 1138 930 l 1,18,-1
 924 930 l 1,19,-1
 924 372 l 2,20,21
 924 262 924 262 945.5 207 c 128,-1,22
 967 152 967 152 1014 152 c 0,23,24
 1048 152 1048 152 1072 158.5 c 128,-1,25
 1096 165 1096 165 1134 180 c 1,26,-1
 1134 20 l 1,27,28
 1104 -5 1104 -5 1060.5 -13.5 c 128,-1,29
 1017 -22 1017 -22 956 -22 c 256,30,0
 895 -22 895 -22 844.5 5.5 c 128,-1,1
EndSplineSet
EndChar

StartChar: rho
Encoding: 961 961 92
Width: 1200
GlyphClass: 2
Flags: W
AnchorPoint: "Anchor-22" 600 1100 basechar 0
AnchorPoint: "Anchor-19" 600 -414 basechar 0
LayerCount: 2
Fore
SplineSet
136 -480 m 1,0,-1
 146 -88 l 1,1,-1
 148 29 l 1,2,3
 148 351 148 351 172 580 c 0,4,5
 191 757 191 757 259 875.5 c 128,-1,6
 327 994 327 994 429.5 1051 c 128,-1,7
 532 1108 532 1108 658 1108 c 0,8,9
 779 1108 779 1108 873.5 1034 c 128,-1,10
 968 960 968 960 1020 836.5 c 128,-1,11
 1072 713 1072 713 1072 568 c 0,12,13
 1072 392 1072 392 1013 263.5 c 128,-1,14
 954 135 954 135 855.5 67.5 c 128,-1,15
 757 0 757 0 640 0 c 0,16,17
 552 0 552 0 497.5 20 c 128,-1,18
 443 40 443 40 415.5 65.5 c 128,-1,19
 388 91 388 91 342 146 c 1,20,21
 340 130 340 130 340 71 c 2,22,-1
 341 -179 l 2,23,24
 341 -363 341 -363 338 -480 c 1,25,-1
 136 -480 l 1,0,-1
467 290 m 128,-1,27
 526 194 526 194 640 194 c 0,28,29
 738 194 738 194 793 291 c 128,-1,30
 848 388 848 388 848 558 c 0,31,32
 848 657 848 657 822.5 739 c 128,-1,33
 797 821 797 821 749.5 868.5 c 128,-1,34
 702 916 702 916 640 916 c 0,35,36
 572 916 572 916 519 868.5 c 128,-1,37
 466 821 466 821 437 739 c 128,-1,38
 408 657 408 657 408 558 c 0,39,26
 408 386 408 386 467 290 c 128,-1,27
EndSplineSet
EndChar

StartChar: uni03C2
Encoding: 962 962 93
Width: 1200
GlyphClass: 2
Flags: W
AnchorPoint: "Anchor-22" 600 1112 basechar 0
AnchorPoint: "Anchor-19" 600 -372 basechar 0
LayerCount: 2
Fore
SplineSet
777 870 m 128,-1,1
 697 932 697 932 595 932 c 0,2,3
 524 932 524 932 461 902 c 128,-1,4
 398 872 398 872 360 819.5 c 128,-1,5
 322 767 322 767 322 703 c 0,6,7
 322 637 322 637 362.5 590 c 128,-1,8
 403 543 403 543 463.5 512.5 c 128,-1,9
 524 482 524 482 613 450 c 0,10,11
 726 410 726 410 803.5 373.5 c 128,-1,12
 881 337 881 337 943.5 272 c 128,-1,13
 1006 207 1006 207 1006 115 c 0,14,15
 1006 41 1006 41 963 -23 c 128,-1,16
 920 -87 920 -87 838.5 -131.5 c 128,-1,17
 757 -176 757 -176 646 -192 c 1,18,-1
 602 -24 l 1,19,20
 699 -6 699 -6 751.5 32 c 128,-1,21
 804 70 804 70 804 116 c 0,22,23
 804 150 804 150 775 176 c 128,-1,24
 746 202 746 202 700 222 c 128,-1,25
 654 242 654 242 571 270 c 0,26,27
 464 307 464 307 415 328 c 0,28,29
 324 366 324 366 260.5 411.5 c 128,-1,30
 197 457 197 457 159.5 526 c 128,-1,31
 122 595 122 595 122 693 c 0,32,33
 122 817 122 817 181 912 c 128,-1,34
 240 1007 240 1007 346.5 1059.5 c 128,-1,35
 453 1112 453 1112 589 1112 c 0,36,37
 762 1112 762 1112 880 1025 c 128,-1,38
 998 938 998 938 1078 768 c 1,39,-1
 908 698 l 1,40,0
 857 808 857 808 777 870 c 128,-1,1
EndSplineSet
EndChar

StartChar: sigma
Encoding: 963 963 94
Width: 1200
GlyphClass: 2
Flags: W
AnchorPoint: "Anchor-22" 609 1170 basechar 0
AnchorPoint: "Anchor-19" 609 -42 basechar 0
LayerCount: 2
Fore
SplineSet
323 52 m 128,-1,1
 208 124 208 124 143.5 251.5 c 128,-1,2
 79 379 79 379 79 538 c 0,3,4
 79 701 79 701 147.5 827 c 128,-1,5
 216 953 216 953 340.5 1027 c 128,-1,6
 465 1101 465 1101 630 1112 c 0,7,8
 748 1120 748 1120 1081 1164 c 2,9,-1
 1153 1173 l 1,10,-1
 1153 965 l 1,11,-1
 1064 974 l 2,12,13
 905 991 905 991 794 999 c 1,14,15
 919 935 919 935 987 824 c 128,-1,16
 1055 713 1055 713 1055 537 c 0,17,18
 1055 376 1055 376 998 249.5 c 128,-1,19
 941 123 941 123 834 51.5 c 128,-1,20
 727 -20 727 -20 583 -20 c 0,21,0
 438 -20 438 -20 323 52 c 128,-1,1
361 350.5 m 128,-1,23
 394 264 394 264 451 214 c 128,-1,24
 508 164 508 164 577 164 c 256,25,26
 646 164 646 164 699.5 213.5 c 128,-1,27
 753 263 753 263 782.5 350 c 128,-1,28
 812 437 812 437 812 546 c 0,29,30
 812 652 812 652 784 733 c 128,-1,31
 756 814 756 814 703 859 c 128,-1,32
 650 904 650 904 579 904 c 0,33,34
 505 904 505 904 448 857 c 128,-1,35
 391 810 391 810 359.5 728 c 128,-1,36
 328 646 328 646 328 543 c 0,37,22
 328 437 328 437 361 350.5 c 128,-1,23
EndSplineSet
EndChar

StartChar: tau
Encoding: 964 964 95
Width: 1200
GlyphClass: 2
Flags: W
AnchorPoint: "Anchor-22" 600 1100 basechar 0
AnchorPoint: "Anchor-19" 600 -22 basechar 0
LayerCount: 2
Fore
SplineSet
155 992.5 m 128,-1,1
 173 1065 173 1065 178 1100 c 1,2,-1
 1060 1100 l 1,3,-1
 1060 920 l 1,4,-1
 724 920 l 1,5,6
 682 733 682 733 672 506 c 0,7,8
 670 458 670 458 670 434 c 0,9,10
 670 319 670 319 700.5 254.5 c 128,-1,11
 731 190 731 190 812 190 c 0,12,13
 861 190 861 190 910.5 213 c 128,-1,14
 960 236 960 236 996 276 c 1,15,-1
 1124 146 l 1,16,17
 1067 75 1067 75 995 31.5 c 128,-1,18
 923 -12 923 -12 808 -12 c 0,19,20
 692 -12 692 -12 613.5 47.5 c 128,-1,21
 535 107 535 107 496.5 212.5 c 128,-1,22
 458 318 458 318 458 456 c 0,23,24
 458 716 458 716 501 920 c 1,25,26
 390 918 390 918 335 906.5 c 128,-1,27
 280 895 280 895 246 858 c 1,28,-1
 120 858 l 1,29,0
 137 920 137 920 155 992.5 c 128,-1,1
EndSplineSet
EndChar

StartChar: upsilon
Encoding: 965 965 96
Width: 1200
GlyphClass: 2
Flags: W
AnchorPoint: "Anchor-22" 600 1118 basechar 0
AnchorPoint: "Anchor-19" 596 -42 basechar 0
LayerCount: 2
Fore
SplineSet
380 41.5 m 128,-1,1
 282 105 282 105 226 221.5 c 128,-1,2
 170 338 170 338 170 489 c 0,3,4
 170 541 170 541 176 601.5 c 128,-1,5
 182 662 182 662 183 676 c 0,6,7
 198 800 198 800 198 882 c 0,8,9
 198 999 198 999 170 1100 c 1,10,-1
 392 1100 l 1,11,12
 409 1022 409 1022 409 915 c 0,13,14
 409 838 409 838 401.5 761 c 128,-1,15
 394 684 394 684 393 672 c 0,16,17
 382 569 382 569 382 526 c 0,18,19
 382 445 382 445 405 367.5 c 128,-1,20
 428 290 428 290 477.5 239 c 128,-1,21
 527 188 527 188 600 188 c 0,22,23
 668 188 668 188 718.5 248.5 c 128,-1,24
 769 309 769 309 795.5 398 c 128,-1,25
 822 487 822 487 822 570 c 0,26,27
 822 715 822 715 803 843 c 128,-1,28
 784 971 784 971 744 1100 c 1,29,-1
 954 1100 l 1,30,31
 995 988 995 988 1014 884.5 c 128,-1,32
 1033 781 1033 781 1033 647 c 0,33,34
 1033 608 1033 608 1032 588 c 0,35,36
 1025 415 1025 415 968 276 c 128,-1,37
 911 137 911 137 815 57.5 c 128,-1,38
 719 -22 719 -22 598 -22 c 0,39,0
 478 -22 478 -22 380 41.5 c 128,-1,1
EndSplineSet
EndChar

StartChar: phi
Encoding: 966 966 97
Width: 1200
GlyphClass: 2
Flags: W
AnchorPoint: "Anchor-22" 600 1100 basechar 0
AnchorPoint: "Anchor-19" 596 -342 basechar 0
LayerCount: 2
Fore
SplineSet
504 4 m 1,0,1
 290 28 290 28 179.5 174 c 128,-1,2
 69 320 69 320 69 605 c 0,3,4
 69 837 69 837 152.5 963.5 c 128,-1,5
 236 1090 236 1090 390 1115 c 1,6,-1
 420 968 l 1,7,8
 344 935 344 935 308 847.5 c 128,-1,9
 272 760 272 760 272 607 c 0,10,11
 272 394 272 394 332 291 c 128,-1,12
 392 188 392 188 504 188 c 1,13,-1
 504 605 l 2,14,15
 504 838 504 838 582 976.5 c 128,-1,16
 660 1115 660 1115 825 1115 c 0,17,18
 980 1115 980 1115 1057.5 985 c 128,-1,19
 1135 855 1135 855 1135 605 c 0,20,21
 1135 326 1135 326 1021.5 177 c 128,-1,22
 908 28 908 28 696 4 c 1,23,-1
 696 -354 l 1,24,-1
 504 -354 l 1,25,-1
 504 4 l 1,0,1
871.5 294 m 128,-1,27
 928 400 928 400 928 605 c 0,28,29
 928 771 928 771 905.5 854.5 c 128,-1,30
 883 938 883 938 818 938 c 0,31,32
 751 938 751 938 723.5 850.5 c 128,-1,33
 696 763 696 763 696 605 c 2,34,-1
 696 188 l 1,35,26
 815 188 815 188 871.5 294 c 128,-1,27
EndSplineSet
EndChar

StartChar: chi
Encoding: 967 967 98
Width: 1200
GlyphClass: 2
Flags: W
AnchorPoint: "Anchor-22" 600 1118 basechar 0
LayerCount: 2
Fore
SplineSet
712.5 -241 m 128,-1,1
 639 -166 639 -166 599 -55 c 128,-1,2
 559 56 559 56 529 203 c 1,3,-1
 265 -266 l 1,4,-1
 62 -266 l 1,5,6
 148 -135 148 -135 235 19.5 c 128,-1,7
 322 174 322 174 428 373 c 2,8,-1
 481 471 l 1,9,-1
 474 517 l 2,10,11
 452 656 452 656 432.5 737.5 c 128,-1,12
 413 819 413 819 375.5 874.5 c 128,-1,13
 338 930 338 930 276 930 c 0,14,15
 243 930 243 930 211.5 913 c 128,-1,16
 180 896 180 896 143 858 c 1,17,-1
 49 974 l 1,18,19
 166 1112 166 1112 306 1112 c 0,20,21
 392 1112 392 1112 446 1064.5 c 128,-1,22
 500 1017 500 1017 534 928.5 c 128,-1,23
 568 840 568 840 602 688 c 1,24,25
 669 805 669 805 752 956 c 2,26,-1
 832 1100 l 1,27,-1
 1046 1100 l 1,28,29
 989 998 989 998 891 832 c 0,30,31
 762 614 762 614 658 430 c 1,32,-1
 676 338 l 2,33,34
 708 167 708 167 732 74 c 128,-1,35
 756 -19 756 -19 796.5 -77.5 c 128,-1,36
 837 -136 837 -136 901 -136 c 0,37,38
 978 -136 978 -136 1044 -32 c 1,39,-1
 1149 -158 l 1,40,41
 1098 -225 1098 -225 1037.5 -270.5 c 128,-1,42
 977 -316 977 -316 898 -316 c 0,43,0
 786 -316 786 -316 712.5 -241 c 128,-1,1
EndSplineSet
EndChar

StartChar: psi
Encoding: 968 968 99
Width: 1200
GlyphClass: 2
Flags: W
AnchorPoint: "Anchor-22" 600 1460 basechar 0
AnchorPoint: "Anchor-19" 598 -350 basechar 0
LayerCount: 2
Fore
SplineSet
506 0 m 1,0,1
 388 25 388 25 310.5 110 c 128,-1,2
 233 195 233 195 196.5 312 c 128,-1,3
 160 429 160 429 160 552 c 0,4,5
 160 708 160 708 145.5 808.5 c 128,-1,6
 131 909 131 909 103 974 c 128,-1,7
 75 1039 75 1039 28 1100 c 1,8,-1
 244 1100 l 1,9,10
 312 1014 312 1014 343 887 c 128,-1,11
 374 760 374 760 374 548 c 0,12,13
 374 414 374 414 403.5 320.5 c 128,-1,14
 433 227 433 227 506 190 c 1,15,-1
 506 1460 l 1,16,-1
 694 1460 l 1,17,-1
 694 190 l 1,18,19
 767 225 767 225 795.5 318 c 128,-1,20
 824 411 824 411 824 548 c 0,21,22
 824 760 824 760 855 887 c 128,-1,23
 886 1014 886 1014 954 1100 c 1,24,-1
 1170 1100 l 1,25,26
 1123 1040 1123 1040 1095.5 974.5 c 128,-1,27
 1068 909 1068 909 1054 809 c 128,-1,28
 1040 709 1040 709 1040 552 c 0,29,30
 1040 428 1040 428 1004 311.5 c 128,-1,31
 968 195 968 195 890 110 c 128,-1,32
 812 25 812 25 694 0 c 1,33,-1
 694 -350 l 1,34,-1
 506 -350 l 1,35,-1
 506 0 l 1,0,1
EndSplineSet
EndChar

StartChar: omega
Encoding: 969 969 100
Width: 1200
GlyphClass: 2
Flags: W
AnchorPoint: "Anchor-22" 600 1118 basechar 0
AnchorPoint: "Anchor-19" 596 -42 basechar 0
LayerCount: 2
Fore
SplineSet
228 44.5 m 128,-1,1
 152 119 152 119 108 256.5 c 128,-1,2
 64 394 64 394 64 578 c 0,3,4
 64 736 64 736 104 873 c 128,-1,5
 144 1010 144 1010 214 1100 c 1,6,-1
 438 1100 l 1,7,8
 364 967 364 967 326 837 c 128,-1,9
 288 707 288 707 288 572 c 0,10,11
 288 474 288 474 303.5 386 c 128,-1,12
 319 298 319 298 344.5 244 c 128,-1,13
 370 190 370 190 398 190 c 0,14,15
 494 190 494 190 494 406 c 2,16,-1
 494 598 l 1,17,-1
 710 598 l 1,18,19
 710 526 710 526 714 418 c 0,20,21
 717 297 717 297 742 243.5 c 128,-1,22
 767 190 767 190 806 190 c 0,23,24
 837 190 837 190 862 240 c 128,-1,25
 887 290 887 290 900.5 377.5 c 128,-1,26
 914 465 914 465 914 572 c 0,27,28
 914 701 914 701 873.5 826.5 c 128,-1,29
 833 952 833 952 752 1100 c 1,30,-1
 984 1100 l 1,31,32
 1054 1012 1054 1012 1096 871 c 128,-1,33
 1138 730 1138 730 1138 578 c 0,34,35
 1138 400 1138 400 1091.5 261.5 c 128,-1,36
 1045 123 1045 123 969 46.5 c 128,-1,37
 893 -30 893 -30 806 -30 c 0,38,39
 742 -30 742 -30 689 8 c 128,-1,40
 636 46 636 46 601 115 c 1,41,42
 564 48 564 48 510.5 9 c 128,-1,43
 457 -30 457 -30 398 -30 c 0,44,0
 304 -30 304 -30 228 44.5 c 128,-1,1
EndSplineSet
EndChar

StartChar: zero
Encoding: 48 48 101
Width: 1200
GlyphClass: 1
Flags: W
LayerCount: 2
Fore
SplineSet
281.5 68.5 m 128,-1,1
 173 157 173 157 137.5 315 c 128,-1,2
 102 473 102 473 102 730 c 0,3,4
 102 993 102 993 137.5 1148 c 128,-1,5
 173 1303 173 1303 281 1386.5 c 128,-1,6
 389 1470 389 1470 602 1470 c 0,7,8
 814 1470 814 1470 921.5 1386.5 c 128,-1,9
 1029 1303 1029 1303 1064.5 1148 c 128,-1,10
 1100 993 1100 993 1100 730 c 0,11,12
 1100 473 1100 473 1064.5 315 c 128,-1,13
 1029 157 1029 157 921 68.5 c 128,-1,14
 813 -20 813 -20 602 -20 c 0,15,0
 390 -20 390 -20 281.5 68.5 c 128,-1,1
350.5 404.5 m 128,-1,17
 369 290 369 290 427 233 c 128,-1,18
 485 176 485 176 602 176 c 0,19,20
 721 176 721 176 778.5 233 c 128,-1,21
 836 290 836 290 854 403.5 c 128,-1,22
 872 517 872 517 872 730 c 0,23,24
 872 922 872 922 854 1034.5 c 128,-1,25
 836 1147 836 1147 777.5 1209.5 c 128,-1,26
 719 1272 719 1272 602 1272 c 0,27,28
 484 1272 484 1272 425.5 1209.5 c 128,-1,29
 367 1147 367 1147 349.5 1035.5 c 128,-1,30
 332 924 332 924 332 730 c 0,31,16
 332 519 332 519 350.5 404.5 c 128,-1,17
602 886 m 1,32,-1
 738 730 l 1,33,-1
 602 588 l 1,34,-1
 466 730 l 1,35,-1
 602 886 l 1,32,-1
EndSplineSet
Substitution2: "'ss04' Style Set 4 lookup 44 subtable" zero.alternate
Substitution2: "'fwid' Full Widths lookup 32 subtable" uniFF10
Substitution2: "'zero' Slashed Zero lookup 31 subtable" zero.zero
Substitution2: "'onum' Oldstyle Figures lookup 25 subtable" zero.tosf
Substitution2: "'tnum' Tabular Numbers lookup 24 subtable" zero.tf
Substitution2: "'pnum' Proportional Numbers lookup 23 subtable" zero.lf
Substitution2: "'dnom' Denominators lookup 17 subtable" zero.dnom
Substitution2: "'numr' Numerators lookup 16 subtable" zero.numr
Substitution2: "'sups' Superscript lookup 15 subtable" uni2070
Substitution2: "'sinf' Scientific Inferiors lookup 14 subtable" uni2080
Substitution2: "'subs' Subscript lookup 13 subtable" uni2080
AlternateSubs2: "'aalt' Access All Alternates lookup 1 subtable" uni2080 uni2070 zero.numr zero.dnom zero.lf zero.tf zero.tosf zero.zero uniFF10 zero.alternate
EndChar

StartChar: one
Encoding: 49 49 102
Width: 1200
GlyphClass: 1
Flags: W
LayerCount: 2
Fore
SplineSet
174 200 m 1,0,-1
 516 200 l 1,1,-1
 516 1130 l 1,2,3
 422 1041 422 1041 332 980 c 128,-1,4
 242 919 242 919 146 890 c 1,5,-1
 146 1112 l 1,6,7
 256 1157 256 1157 359 1250.5 c 128,-1,8
 462 1344 462 1344 542 1450 c 1,9,-1
 740 1450 l 1,10,-1
 740 200 l 1,11,-1
 1056 200 l 1,12,-1
 1056 0 l 1,13,-1
 174 0 l 1,14,-1
 174 200 l 1,0,-1
EndSplineSet
Substitution2: "'fwid' Full Widths lookup 32 subtable" uniFF11
Substitution2: "'onum' Oldstyle Figures lookup 25 subtable" one.tosf
Substitution2: "'tnum' Tabular Numbers lookup 24 subtable" one.tf
Substitution2: "'pnum' Proportional Numbers lookup 23 subtable" one.lf
Substitution2: "'dnom' Denominators lookup 17 subtable" one.dnom
Substitution2: "'numr' Numerators lookup 16 subtable" one.numr
Substitution2: "'sups' Superscript lookup 15 subtable" uni00B9
Substitution2: "'sinf' Scientific Inferiors lookup 14 subtable" uni2081
Substitution2: "'subs' Subscript lookup 13 subtable" uni2081
AlternateSubs2: "'aalt' Access All Alternates lookup 1 subtable" uni2081 uni00B9 one.numr one.dnom one.lf one.tf one.tosf uniFF11
EndChar

StartChar: two
Encoding: 50 50 103
Width: 1200
GlyphClass: 1
Flags: W
LayerCount: 2
Fore
SplineSet
269 372 m 0,1,2
 446 528 446 528 550.5 631.5 c 128,-1,3
 655 735 655 735 727.5 846.5 c 128,-1,4
 800 958 800 958 800 1062 c 0,5,6
 800 1120 800 1120 774.5 1165 c 128,-1,7
 749 1210 749 1210 704.5 1235 c 128,-1,8
 660 1260 660 1260 606 1260 c 0,9,10
 545 1260 545 1260 495.5 1230 c 128,-1,11
 446 1200 446 1200 418 1147 c 128,-1,12
 390 1094 390 1094 390 1028 c 1,13,-1
 152 1028 l 1,14,15
 153 1175 153 1175 213 1274.5 c 128,-1,16
 273 1374 273 1374 377 1422 c 128,-1,17
 481 1470 481 1470 616 1470 c 0,18,19
 731 1470 731 1470 830 1428 c 128,-1,20
 929 1386 929 1386 990.5 1297 c 128,-1,21
 1052 1208 1052 1208 1052 1074 c 256,22,23
 1052 940 1052 940 968 799 c 128,-1,24
 884 658 884 658 772 540.5 c 128,-1,25
 660 423 660 423 494 271 c 2,26,-1
 410 194 l 1,27,-1
 1056 194 l 1,28,-1
 1056 -6 l 1,29,-1
 136 -6 l 1,30,-1
 136 254 l 1,31,0
 204 316 204 316 269 372 c 0,1,2
EndSplineSet
Substitution2: "'fwid' Full Widths lookup 32 subtable" uniFF12
Substitution2: "'onum' Oldstyle Figures lookup 25 subtable" two.tosf
Substitution2: "'tnum' Tabular Numbers lookup 24 subtable" two.tf
Substitution2: "'pnum' Proportional Numbers lookup 23 subtable" two.lf
Substitution2: "'dnom' Denominators lookup 17 subtable" two.dnom
Substitution2: "'numr' Numerators lookup 16 subtable" two.numr
Substitution2: "'sups' Superscript lookup 15 subtable" uni00B2
Substitution2: "'sinf' Scientific Inferiors lookup 14 subtable" uni2082
Substitution2: "'subs' Subscript lookup 13 subtable" uni2082
AlternateSubs2: "'aalt' Access All Alternates lookup 1 subtable" uni2082 uni00B2 two.numr two.dnom two.lf two.tf two.tosf uniFF12
EndChar

StartChar: three
Encoding: 51 51 104
Width: 1200
GlyphClass: 1
Flags: W
LayerCount: 2
Fore
SplineSet
398.5 280 m 128,-1,1
 433 229 433 229 485 205.5 c 128,-1,2
 537 182 537 182 590 182 c 0,3,4
 646 182 646 182 700.5 206 c 128,-1,5
 755 230 755 230 791.5 281 c 128,-1,6
 828 332 828 332 828 410 c 0,7,8
 828 500 828 500 782.5 571.5 c 128,-1,9
 737 643 737 643 642.5 684.5 c 128,-1,10
 548 726 548 726 408 726 c 1,11,-1
 408 900 l 1,12,-1
 806 1254 l 1,13,-1
 170 1254 l 1,14,-1
 170 1450 l 1,15,-1
 1066 1450 l 1,16,-1
 1066 1192 l 1,17,-1
 711 856 l 1,18,19
 828 836 828 836 911.5 772.5 c 128,-1,20
 995 709 995 709 1038.5 615 c 128,-1,21
 1082 521 1082 521 1082 410 c 0,22,23
 1082 274 1082 274 1009 176 c 128,-1,24
 936 78 936 78 821.5 28 c 128,-1,25
 707 -22 707 -22 586 -22 c 0,26,27
 464 -22 464 -22 358.5 23 c 128,-1,28
 253 68 253 68 186.5 165 c 128,-1,29
 120 262 120 262 120 410 c 1,30,-1
 364 410 l 1,31,0
 364 331 364 331 398.5 280 c 128,-1,1
EndSplineSet
Substitution2: "'fwid' Full Widths lookup 32 subtable" uniFF13
Substitution2: "'onum' Oldstyle Figures lookup 25 subtable" three.tosf
Substitution2: "'tnum' Tabular Numbers lookup 24 subtable" three.tf
Substitution2: "'pnum' Proportional Numbers lookup 23 subtable" three.lf
Substitution2: "'dnom' Denominators lookup 17 subtable" three.dnom
Substitution2: "'numr' Numerators lookup 16 subtable" three.numr
Substitution2: "'sups' Superscript lookup 15 subtable" uni00B3
Substitution2: "'sinf' Scientific Inferiors lookup 14 subtable" uni2083
Substitution2: "'subs' Subscript lookup 13 subtable" uni2083
AlternateSubs2: "'aalt' Access All Alternates lookup 1 subtable" uni2083 uni00B3 three.numr three.dnom three.lf three.tf three.tosf uniFF13
EndChar

StartChar: four
Encoding: 52 52 105
Width: 1200
GlyphClass: 1
Flags: W
LayerCount: 2
Fore
SplineSet
672 298 m 1,0,-1
 82 298 l 1,1,-1
 82 540 l 1,2,-1
 620 1450 l 1,3,-1
 900 1450 l 1,4,-1
 900 496 l 1,5,-1
 1106 496 l 1,6,-1
 1106 298 l 1,7,-1
 900 298 l 1,8,-1
 900 0 l 1,9,-1
 672 0 l 1,10,-1
 672 298 l 1,0,-1
674 496 m 1,11,-1
 674 1140 l 1,12,-1
 300 496 l 1,13,-1
 674 496 l 1,11,-1
EndSplineSet
Substitution2: "'fwid' Full Widths lookup 32 subtable" uniFF14
Substitution2: "'onum' Oldstyle Figures lookup 25 subtable" four.tosf
Substitution2: "'tnum' Tabular Numbers lookup 24 subtable" four.tf
Substitution2: "'pnum' Proportional Numbers lookup 23 subtable" four.lf
Substitution2: "'dnom' Denominators lookup 17 subtable" four.dnom
Substitution2: "'numr' Numerators lookup 16 subtable" four.numr
Substitution2: "'sups' Superscript lookup 15 subtable" uni2074
Substitution2: "'sinf' Scientific Inferiors lookup 14 subtable" uni2084
Substitution2: "'subs' Subscript lookup 13 subtable" uni2084
AlternateSubs2: "'aalt' Access All Alternates lookup 1 subtable" uni2084 uni2074 four.numr four.dnom four.lf four.tf four.tosf uniFF14
EndChar

StartChar: five
Encoding: 53 53 106
Width: 1200
GlyphClass: 1
Flags: W
LayerCount: 2
Fore
SplineSet
371 24 m 128,-1,1
 264 68 264 68 200 158.5 c 128,-1,2
 136 249 136 249 136 382 c 1,3,-1
 368 382 l 1,4,5
 375 285 375 285 437 237.5 c 128,-1,6
 499 190 499 190 584 190 c 0,7,8
 651 190 651 190 705 225 c 128,-1,9
 759 260 759 260 790.5 327.5 c 128,-1,10
 822 395 822 395 822 488 c 0,11,12
 822 573 822 573 794 635 c 128,-1,13
 766 697 766 697 716 730.5 c 128,-1,14
 666 764 666 764 600 764 c 0,15,16
 518 764 518 764 459.5 719 c 128,-1,17
 401 674 401 674 380 598 c 1,18,-1
 146 598 l 1,19,-1
 250 1450 l 1,20,-1
 1016 1450 l 1,21,-1
 1016 1246 l 1,22,-1
 450 1246 l 1,23,-1
 391 829 l 1,24,25
 447 899 447 899 513 934.5 c 128,-1,26
 579 970 579 970 662 970 c 0,27,28
 789 970 789 970 881 906.5 c 128,-1,29
 973 843 973 843 1021.5 732.5 c 128,-1,30
 1070 622 1070 622 1070 484 c 0,31,32
 1070 337 1070 337 1011 222.5 c 128,-1,33
 952 108 952 108 847 44 c 128,-1,34
 742 -20 742 -20 608 -20 c 0,35,0
 478 -20 478 -20 371 24 c 128,-1,1
EndSplineSet
Substitution2: "'fwid' Full Widths lookup 32 subtable" uniFF15
Substitution2: "'onum' Oldstyle Figures lookup 25 subtable" five.tosf
Substitution2: "'tnum' Tabular Numbers lookup 24 subtable" five.tf
Substitution2: "'pnum' Proportional Numbers lookup 23 subtable" five.lf
Substitution2: "'dnom' Denominators lookup 17 subtable" five.dnom
Substitution2: "'numr' Numerators lookup 16 subtable" five.numr
Substitution2: "'sups' Superscript lookup 15 subtable" uni2075
Substitution2: "'sinf' Scientific Inferiors lookup 14 subtable" uni2085
Substitution2: "'subs' Subscript lookup 13 subtable" uni2085
AlternateSubs2: "'aalt' Access All Alternates lookup 1 subtable" uni2085 uni2075 five.numr five.dnom five.lf five.tf five.tosf uniFF15
EndChar

StartChar: six
Encoding: 54 54 107
Width: 1200
GlyphClass: 1
Flags: W
LayerCount: 2
Fore
SplineSet
234.5 179 m 128,-1,1
 120 380 120 380 120 702 c 0,2,3
 120 905 120 905 170.5 1078.5 c 128,-1,4
 221 1252 221 1252 334.5 1361 c 128,-1,5
 448 1470 448 1470 626 1470 c 0,6,7
 743 1470 743 1470 841 1424 c 128,-1,8
 939 1378 939 1378 994 1300 c 1,9,-1
 848 1174 l 1,10,11
 817 1215 817 1215 758 1241.5 c 128,-1,12
 699 1268 699 1268 628 1268 c 0,13,14
 474 1268 474 1268 418 1118.5 c 128,-1,15
 362 969 362 969 360 738 c 1,16,17
 409 844 409 844 486 895 c 128,-1,18
 563 946 563 946 672 946 c 0,19,20
 791 946 791 946 884 882 c 128,-1,21
 977 818 977 818 1028.5 708 c 128,-1,22
 1080 598 1080 598 1080 464 c 0,23,24
 1080 326 1080 326 1022 215 c 128,-1,25
 964 104 964 104 859 41 c 128,-1,26
 754 -22 754 -22 618 -22 c 0,27,0
 349 -22 349 -22 234.5 179 c 128,-1,1
412.5 312 m 128,-1,29
 441 251 441 251 494 216.5 c 128,-1,30
 547 182 547 182 618 182 c 0,31,32
 728 182 728 182 786 256 c 128,-1,33
 844 330 844 330 844 452 c 0,34,35
 844 532 844 532 820 597.5 c 128,-1,36
 796 663 796 663 746.5 702.5 c 128,-1,37
 697 742 697 742 624 742 c 256,38,39
 551 742 551 742 496.5 702.5 c 128,-1,40
 442 663 442 663 413 596.5 c 128,-1,41
 384 530 384 530 384 450 c 0,42,28
 384 373 384 373 412.5 312 c 128,-1,29
EndSplineSet
Substitution2: "'fwid' Full Widths lookup 32 subtable" uniFF16
Substitution2: "'onum' Oldstyle Figures lookup 25 subtable" six.tosf
Substitution2: "'tnum' Tabular Numbers lookup 24 subtable" six.tf
Substitution2: "'pnum' Proportional Numbers lookup 23 subtable" six.lf
Substitution2: "'dnom' Denominators lookup 17 subtable" six.dnom
Substitution2: "'numr' Numerators lookup 16 subtable" six.numr
Substitution2: "'sups' Superscript lookup 15 subtable" uni2076
Substitution2: "'sinf' Scientific Inferiors lookup 14 subtable" uni2086
Substitution2: "'subs' Subscript lookup 13 subtable" uni2086
AlternateSubs2: "'aalt' Access All Alternates lookup 1 subtable" uni2086 uni2076 six.numr six.dnom six.lf six.tf six.tosf uniFF16
EndChar

StartChar: seven
Encoding: 55 55 108
Width: 1200
GlyphClass: 1
Flags: W
LayerCount: 2
Fore
SplineSet
838 1240 m 1,0,-1
 138 1240 l 1,1,-1
 138 1450 l 1,2,-1
 1076 1450 l 1,3,-1
 1076 1240 l 1,4,-1
 528 0 l 1,5,-1
 288 0 l 1,6,-1
 838 1240 l 1,0,-1
EndSplineSet
Substitution2: "'fwid' Full Widths lookup 32 subtable" uniFF17
Substitution2: "'onum' Oldstyle Figures lookup 25 subtable" seven.tosf
Substitution2: "'tnum' Tabular Numbers lookup 24 subtable" seven.tf
Substitution2: "'pnum' Proportional Numbers lookup 23 subtable" seven.lf
Substitution2: "'dnom' Denominators lookup 17 subtable" seven.dnom
Substitution2: "'numr' Numerators lookup 16 subtable" seven.numr
Substitution2: "'sups' Superscript lookup 15 subtable" uni2077
Substitution2: "'sinf' Scientific Inferiors lookup 14 subtable" uni2087
Substitution2: "'subs' Subscript lookup 13 subtable" uni2087
AlternateSubs2: "'aalt' Access All Alternates lookup 1 subtable" uni2087 uni2077 seven.numr seven.dnom seven.lf seven.tf seven.tosf uniFF17
EndChar

StartChar: eight
Encoding: 56 56 109
Width: 1200
GlyphClass: 1
Flags: W
LayerCount: 2
Fore
SplineSet
365.5 29.5 m 128,-1,1
 253 75 253 75 182.5 170 c 128,-1,2
 112 265 112 265 112 406 c 0,3,4
 112 498 112 498 147.5 571.5 c 128,-1,5
 183 645 183 645 238.5 694.5 c 128,-1,6
 294 744 294 744 359 771 c 1,7,8
 280 816 280 816 230 895 c 128,-1,9
 180 974 180 974 180 1092 c 0,10,11
 180 1215 180 1215 242.5 1300.5 c 128,-1,12
 305 1386 305 1386 403 1428 c 128,-1,13
 501 1470 501 1470 606 1470 c 0,14,15
 714 1470 714 1470 810 1429.5 c 128,-1,16
 906 1389 906 1389 966 1305.5 c 128,-1,17
 1026 1222 1026 1222 1026 1100 c 0,18,19
 1026 981 1026 981 974 897 c 128,-1,20
 922 813 922 813 843 770 c 1,21,22
 947 721 947 721 1019.5 632.5 c 128,-1,23
 1092 544 1092 544 1092 416 c 0,24,25
 1092 270 1092 270 1021.5 173 c 128,-1,26
 951 76 951 76 840 30 c 128,-1,27
 729 -16 729 -16 604 -16 c 0,28,0
 478 -16 478 -16 365.5 29.5 c 128,-1,1
387.5 286 m 128,-1,30
 421 232 421 232 477.5 203 c 128,-1,31
 534 174 534 174 602 174 c 0,32,33
 668 174 668 174 726 203 c 128,-1,34
 784 232 784 232 819 287 c 128,-1,35
 854 342 854 342 854 416 c 0,36,37
 854 497 854 497 819.5 552 c 128,-1,38
 785 607 785 607 728 633.5 c 128,-1,39
 671 660 671 660 602 660 c 256,40,41
 533 660 533 660 476.5 633 c 128,-1,42
 420 606 420 606 387 550.5 c 128,-1,43
 354 495 354 495 354 414 c 0,44,29
 354 340 354 340 387.5 286 c 128,-1,30
453.5 942.5 m 128,-1,46
 507 892 507 892 602 892 c 0,47,48
 694 892 694 892 749 943.5 c 128,-1,49
 804 995 804 995 804 1092 c 0,50,51
 804 1190 804 1190 749 1243 c 128,-1,52
 694 1296 694 1296 602 1296 c 0,53,54
 508 1296 508 1296 454 1243 c 128,-1,55
 400 1190 400 1190 400 1090 c 0,56,45
 400 993 400 993 453.5 942.5 c 128,-1,46
EndSplineSet
Substitution2: "'fwid' Full Widths lookup 32 subtable" uniFF18
Substitution2: "'onum' Oldstyle Figures lookup 25 subtable" eight.tosf
Substitution2: "'tnum' Tabular Numbers lookup 24 subtable" eight.tf
Substitution2: "'pnum' Proportional Numbers lookup 23 subtable" eight.lf
Substitution2: "'dnom' Denominators lookup 17 subtable" eight.dnom
Substitution2: "'numr' Numerators lookup 16 subtable" eight.numr
Substitution2: "'sups' Superscript lookup 15 subtable" uni2078
Substitution2: "'sinf' Scientific Inferiors lookup 14 subtable" uni2088
Substitution2: "'subs' Subscript lookup 13 subtable" uni2088
AlternateSubs2: "'aalt' Access All Alternates lookup 1 subtable" uni2088 uni2078 eight.numr eight.dnom eight.lf eight.tf eight.tosf uniFF18
EndChar

StartChar: nine
Encoding: 57 57 110
Width: 1200
GlyphClass: 1
Flags: W
LayerCount: 2
Fore
SplineSet
284.5 60.5 m 128,-1,1
 171 137 171 137 134 274 c 1,2,-1
 328 362 l 1,3,4
 361 268 361 268 426 224 c 128,-1,5
 491 180 491 180 580 180 c 0,6,7
 696 180 696 180 755 262 c 128,-1,8
 814 344 814 344 831.5 458.5 c 128,-1,9
 849 573 849 573 850 722 c 1,10,11
 799 633 799 633 719.5 589.5 c 128,-1,12
 640 546 640 546 530 546 c 0,13,14
 402 546 402 546 306 604.5 c 128,-1,15
 210 663 210 663 158 766 c 128,-1,16
 106 869 106 869 106 1000 c 0,17,18
 106 1133 106 1133 170.5 1240.5 c 128,-1,19
 235 1348 235 1348 342.5 1409 c 128,-1,20
 450 1470 450 1470 576 1470 c 0,21,22
 855 1470 855 1470 976.5 1298.5 c 128,-1,23
 1098 1127 1098 1127 1098 816 c 0,24,25
 1098 418 1098 418 979.5 201 c 128,-1,26
 861 -16 861 -16 576 -16 c 0,27,0
 398 -16 398 -16 284.5 60.5 c 128,-1,1
381 868.5 m 128,-1,29
 408 807 408 807 460 771.5 c 128,-1,30
 512 736 512 736 584 736 c 0,31,32
 701 736 701 736 764.5 810 c 128,-1,33
 828 884 828 884 828 1006 c 0,34,35
 828 1083 828 1083 799.5 1144.5 c 128,-1,36
 771 1206 771 1206 717.5 1241 c 128,-1,37
 664 1276 664 1276 594 1276 c 0,38,39
 522 1276 522 1276 467.5 1241.5 c 128,-1,40
 413 1207 413 1207 383.5 1146 c 128,-1,41
 354 1085 354 1085 354 1006 c 0,42,28
 354 930 354 930 381 868.5 c 128,-1,29
EndSplineSet
Substitution2: "'fwid' Full Widths lookup 32 subtable" uniFF19
Substitution2: "'onum' Oldstyle Figures lookup 25 subtable" nine.tosf
Substitution2: "'tnum' Tabular Numbers lookup 24 subtable" nine.tf
Substitution2: "'pnum' Proportional Numbers lookup 23 subtable" nine.lf
Substitution2: "'dnom' Denominators lookup 17 subtable" nine.dnom
Substitution2: "'numr' Numerators lookup 16 subtable" nine.numr
Substitution2: "'sups' Superscript lookup 15 subtable" uni2079
Substitution2: "'sinf' Scientific Inferiors lookup 14 subtable" uni2089
Substitution2: "'subs' Subscript lookup 13 subtable" uni2089
AlternateSubs2: "'aalt' Access All Alternates lookup 1 subtable" uni2089 uni2079 nine.numr nine.dnom nine.lf nine.tf nine.tosf uniFF19
EndChar

StartChar: asterisk
Encoding: 42 42 111
Width: 1200
GlyphClass: 1
Flags: W
LayerCount: 2
Fore
SplineSet
214 118 m 1,0,-1
 467 481 l 1,1,-1
 401 451 l 1,2,-1
 45 451 l 1,3,-1
 45 650 l 1,4,-1
 400 650 l 1,5,-1
 467 621 l 1,6,-1
 214 983 l 1,7,-1
 417 1101 l 1,8,-1
 600 746 l 1,9,-1
 783 1101 l 1,10,-1
 986 983 l 1,11,-1
 733 621 l 1,12,-1
 800 650 l 1,13,-1
 1155 650 l 1,14,-1
 1155 451 l 1,15,-1
 799 451 l 1,16,-1
 733 481 l 1,17,-1
 986 118 l 1,18,-1
 783 0 l 1,19,-1
 600 355 l 1,20,-1
 417 0 l 1,21,-1
 214 118 l 1,0,-1
EndSplineSet
Substitution2: "'ss05' Style Set 5 lookup 45 subtable" u1F7AF
Substitution2: "'fwid' Full Widths lookup 32 subtable" uniFF0A
AlternateSubs2: "'aalt' Access All Alternates lookup 1 subtable" uniFF0A u1F7AF
EndChar

StartChar: underscore
Encoding: 95 95 112
Width: 1200
GlyphClass: 1
Flags: W
LayerCount: 2
Fore
SplineSet
112 130 m 1,0,-1
 1088 130 l 1,1,-1
 1088 -62 l 1,2,-1
 112 -62 l 1,3,-1
 112 130 l 1,0,-1
EndSplineSet
Substitution2: "Single Substitution lookup 78 subtable" underscore.alternate
Substitution2: "Single Substitution lookup 70 subtable" underscore.alternate
Substitution2: "'fwid' Full Widths lookup 32 subtable" uniFF3F
AlternateSubs2: "'aalt' Access All Alternates lookup 1 subtable" uniFF3F underscore.alternate
EndChar

StartChar: plus
Encoding: 43 43 113
Width: 1200
GlyphClass: 1
Flags: W
LayerCount: 2
Fore
SplineSet
476 432 m 1,0,-1
 110 432 l 1,1,-1
 110 664 l 1,2,-1
 476 664 l 1,3,-1
 476 1054 l 1,4,-1
 724 1054 l 1,5,-1
 724 664 l 1,6,-1
 1088 664 l 1,7,-1
 1088 432 l 1,8,-1
 724 432 l 1,9,-1
 724 48 l 1,10,-1
 476 48 l 1,11,-1
 476 432 l 1,0,-1
EndSplineSet
Substitution2: "'fwid' Full Widths lookup 32 subtable" uniFF0B
Substitution2: "'sups' Superscript lookup 15 subtable" uni207A
Substitution2: "'sinf' Scientific Inferiors lookup 14 subtable" uni208A
Substitution2: "'subs' Subscript lookup 13 subtable" uni208A
AlternateSubs2: "'aalt' Access All Alternates lookup 1 subtable" uni208A uni207A uniFF0B
EndChar
